<?xml version="1.0" encoding="UTF-8"?>
<svg version="1.1" xmlns="http://www.w3.org/2000/svg" width="1236" height="361">
<path d="M0 0 C2.12646259 1.96998764 4.21221317 3.97768799 6.28051758 6.00854492 C7.69215545 7.38642725 9.13304636 8.73414557 10.57495117 10.08032227 C40.47739935 38.61775141 57.78169772 80.86143761 58.96557617 121.90844727 C59.88933008 171.58322864 43.12063475 215.11380585 8.95385742 251.20532227 C-20.20374804 281.21053254 -62.85389788 299.66483003 -104.61254883 300.64672852 C-153.49550839 301.20070267 -197.13639331 285.68646426 -232.55078125 251.49169922 C-265.26146902 219.1815662 -282.70577951 175.71794623 -283.49926758 129.94360352 C-282.65632371 81.26359515 -263.62348272 38.90644638 -229.48364258 4.67016602 C-167.6693659 -54.27295574 -64.00556174 -57.54637026 0 0 Z " fill="#DBDCDC" transform="translate(286.249267578125,50.556396484375)"/>
<path d="M0 0 C0.33 42.24 0.66 84.48 1 128 C7.18486829 121.25287096 13.06009754 114.78896972 18.75390625 107.71484375 C21.0883059 104.89326505 23.51990598 102.19409288 26 99.5 C30.10953207 95.03311732 33.99501643 90.43368185 37.796875 85.703125 C38.52390625 84.81109375 39.2509375 83.9190625 40 83 C40.34949707 82.38310303 40.69899414 81.76620605 41.05908203 81.13061523 C42.54343463 78.82902499 43.69363157 77.50668074 46 76 C51.14608775 75.12882995 56.18855966 75.33933028 61.375 75.5625 C62.79289199 75.59764765 64.21086753 75.62958066 65.62890625 75.65820312 C69.08768539 75.73498745 72.54330845 75.85557441 76 76 C74.22500149 79.80125714 71.80962699 82.54950575 68.9375 85.5625 C65.31013008 89.43675897 61.82453427 93.35785875 58.5 97.5 C55.30061094 101.47638355 51.97338802 105.26589762 48.5 109 C38.32429763 118.44332766 38.32429763 118.44332766 33 130 C34.45955692 132.37360638 34.45955692 132.37360638 36.6875 134.75 C40.54009123 139.23874441 44.16982237 143.80709937 47.6875 148.5625 C52.035191 154.40951531 56.45319572 160.19458526 60.9375 165.9375 C65.75233454 172.10738764 70.55006341 178.2895387 75.3125 184.5 C76.14865845 185.58655884 76.14865845 185.58655884 77.00170898 186.69506836 C77.76849976 187.69679077 77.76849976 187.69679077 78.55078125 188.71875 C79.00106689 189.30591797 79.45135254 189.89308594 79.9152832 190.49804688 C81 192 81 192 82 194 C77.85597333 194.19906641 73.71453512 194.3435041 69.56713867 194.43945312 C68.15941869 194.47947543 66.75202695 194.53391768 65.34545898 194.60351562 C53.70677243 195.16461501 53.70677243 195.16461501 49.61816406 192.37475586 C47.82362264 190.34329464 46.40195271 188.3158481 45 186 C44.27554688 185.07316406 43.55109375 184.14632812 42.8046875 183.19140625 C42.16789063 182.32386719 41.53109375 181.45632812 40.875 180.5625 C37.08336048 175.44638366 33.24601839 170.36886235 29.375 165.3125 C28.81772217 164.58434082 28.26044434 163.85618164 27.6862793 163.10595703 C23.81453756 158.05215775 19.92639838 153.01151211 16 148 C9.21464928 153.0455172 2.06374006 159.20480254 0.17749023 167.70776367 C-0.10328678 171.71711985 -0.14846728 175.67393262 -0.0625 179.6875 C-0.06558277 181.08269727 -0.07271864 182.47789169 -0.08398438 183.87304688 C-0.09566516 187.24879379 -0.05337358 190.62465484 0 194 C-9.24 194 -18.48 194 -28 194 C-28.33 143.51 -28.66 93.02 -29 41 C-39.3810356 50.2307326 -39.3810356 50.2307326 -48.1875 60.5625 C-48.67033447 61.2217749 -49.15316895 61.8810498 -49.65063477 62.56030273 C-65.11149255 84.30886313 -72.66146026 108.62258144 -72.5 135.1875 C-72.49785492 136.33345642 -72.49785492 136.33345642 -72.4956665 137.50256348 C-72.43829374 149.92036436 -71.25492477 161.24629693 -67 173 C-66.77006348 173.66789551 -66.54012695 174.33579102 -66.30322266 175.02392578 C-55.52169833 205.96453523 -33.96077388 230.59809479 -4.6328125 245.28515625 C4.22942118 249.55119689 13.42062861 252.78511644 23 255 C23.85078125 255.20625 24.7015625 255.4125 25.578125 255.625 C40.21931131 258.63690118 55.86479617 257.52473124 70.56640625 255.4375 C74 255 74 255 79 255 C79 262.26 79 269.52 79 277 C69.30009355 279.16322624 59.94926318 279.39840839 50.0625 279.375 C49.24118591 279.37478851 48.41987183 279.37457703 47.57366943 279.37435913 C34.9884547 279.34199338 23.13196048 278.60024285 11 275 C10.34563965 274.81808105 9.6912793 274.63616211 9.01708984 274.44873047 C-20.01384888 266.28446296 -46.76439296 247.93224519 -65 224 C-65.79019531 223.01 -66.58039063 222.02 -67.39453125 221 C-79.57491113 205.28579133 -88.57262818 185.35111097 -92.1875 165.8125 C-92.35185547 164.97525391 -92.51621094 164.13800781 -92.68554688 163.27539062 C-96.83057302 141.74474874 -96.63875203 119.22934124 -91 98 C-90.73509766 96.99356445 -90.73509766 96.99356445 -90.46484375 95.96679688 C-80.6484615 60.2278941 -55.68771811 28.81627667 -23.80664062 10.2878418 C-5.61122192 0 -5.61122192 0 0 0 Z " fill="#8C8C8D" transform="translate(125,45)"/>
<path d="M0 0 C1.09957031 0.52207031 2.19914062 1.04414062 3.33203125 1.58203125 C21.13265397 10.603062 36.93047653 24.20476411 49 40 C49.66644531 40.85078125 50.33289063 41.7015625 51.01953125 42.578125 C65.06279641 61.08088856 73.87627393 82.21466613 78 105 C78.26151855 106.35424072 78.26151855 106.35424072 78.52832031 107.73583984 C79.07432553 111.5143542 79.19929792 115.23719119 79.23828125 119.046875 C79.246353 119.81694885 79.25442474 120.58702271 79.26274109 121.38043213 C79.27652553 123.01092319 79.28727272 124.64144243 79.29516602 126.27197266 C79.30657234 127.90259558 79.32683911 129.53318464 79.35668945 131.16357422 C79.57840812 143.31474792 78.19267604 154.27441764 75 166 C74.72808838 167.01400879 74.45617676 168.02801758 74.17602539 169.07275391 C63.9193767 204.95257109 40.2550154 235.77801533 7.75 254.28076172 C-9.8389616 264 -9.8389616 264 -15 264 C-15 213.84 -15 163.68 -15 112 C-6.09 112 2.82 112 12 112 C12.33 148.96 12.66 185.92 13 224 C15.31 221.69 17.62 219.38 20 217 C20.804375 216.21625 21.60875 215.4325 22.4375 214.625 C45.98790457 190.50019531 57.60082126 159.62247559 57.55786133 125.99389648 C56.76984632 92.0911879 41.87728822 61.90510947 17.7734375 38.46875 C1.99937315 24.42761103 -16.75097047 15.57579051 -37 10 C-38.11048706 9.6908667 -38.11048706 9.6908667 -39.2434082 9.37548828 C-46.74183168 7.58095302 -54.33191504 7.69711894 -61.99389648 7.73925781 C-64.29763405 7.74993113 -66.60058366 7.7393377 -68.90429688 7.7265625 C-77.84292881 7.71936466 -86.18244498 8.39100372 -95 10 C-95 2.74 -95 -4.52 -95 -12 C-63.46401972 -21.01028008 -28.96186929 -13.79970277 0 0 Z " fill="#68C40D" transform="translate(239,51)"/>
<path d="M0 0 C2.90079873 2.22029327 4.36101303 4.22334342 5.96484375 7.50390625 C5.96484375 8.16390625 5.96484375 8.82390625 5.96484375 9.50390625 C6.62484375 9.50390625 7.28484375 9.50390625 7.96484375 9.50390625 C8.1865625 8.91867188 8.40828125 8.3334375 8.63671875 7.73046875 C10.37304783 4.81956411 12.34442094 3.65919581 15.21484375 1.87890625 C16.148125 1.28851563 17.08140625 0.698125 18.04296875 0.08984375 C26.26474709 -4.37277925 35.40869777 -4.76758873 44.54296875 -2.99609375 C50.98154306 -0.83351917 54.93371307 3.59320143 57.96484375 9.50390625 C59.12706906 13.04446512 59.0853401 16.39984717 59.07836914 20.10839844 C59.07851517 20.76247177 59.07866119 21.4165451 59.07881165 22.09043884 C59.07811716 24.24392051 59.07034658 26.39731477 59.0625 28.55078125 C59.06063417 30.04722039 59.05921104 31.54366013 59.05821228 33.0401001 C59.0544001 36.9724904 59.04458092 40.90484357 59.0335083 44.83721924 C59.02326624 48.85241188 59.01870867 52.86761055 59.01367188 56.8828125 C59.00295747 64.75652932 58.9853712 72.63020889 58.96484375 80.50390625 C51.70484375 80.50390625 44.44484375 80.50390625 36.96484375 80.50390625 C36.93511475 78.15060181 36.93511475 78.15060181 36.90478516 75.74975586 C36.82856242 69.91447227 36.73987034 64.07943261 36.64746094 58.24438477 C36.6092401 55.72164739 36.57437533 53.1988568 36.54296875 50.67602539 C36.4971689 47.04424048 36.43919805 43.41281973 36.37890625 39.78125 C36.36735504 38.6580687 36.35580383 37.53488739 36.34390259 36.37767029 C36.43965678 26.77163843 36.43965678 26.77163843 32.13671875 18.59765625 C28.1567571 16.59335902 24.29609458 16.79610064 19.96484375 17.50390625 C16.98366126 18.81161823 14.47828319 20.44323419 11.96484375 22.50390625 C11.44387619 22.91635086 10.92290863 23.32879547 10.38615417 23.7537384 C8.42311004 26.17098425 8.56784897 27.80125037 8.5324707 30.89331055 C8.51267654 31.99422531 8.49288239 33.09514008 8.4724884 34.22941589 C8.46609848 35.4169899 8.45970856 36.6045639 8.453125 37.828125 C8.4261982 39.65293144 8.4261982 39.65293144 8.39872742 41.51460266 C8.34446978 45.40683508 8.31067825 49.29894379 8.27734375 53.19140625 C8.24418443 55.82749123 8.20969609 58.46355986 8.17382812 61.09960938 C8.08873401 67.56761929 8.02199605 74.03559151 7.96484375 80.50390625 C0.70484375 80.50390625 -6.55515625 80.50390625 -14.03515625 80.50390625 C-14.04973877 78.90474365 -14.06432129 77.30558105 -14.0793457 75.65795898 C-14.1374263 69.71079426 -14.21465961 63.76400427 -14.29760742 57.81713867 C-14.33081067 55.24591159 -14.35885683 52.67461243 -14.3815918 50.10327148 C-14.41522139 46.40186927 -14.46754395 42.70112485 -14.5234375 39 C-14.52982742 37.85494492 -14.53621735 36.70988983 -14.5428009 35.53013611 C-14.65387425 29.46648103 -14.95364238 24.79760261 -18.03515625 19.50390625 C-22.30700405 16.65600772 -26.02001591 16.75570954 -31.03515625 17.50390625 C-34.92285163 19.23248486 -38.0365579 21.5053079 -41.03515625 24.50390625 C-41.3667491 26.97010789 -41.3667491 26.97010789 -41.35400391 29.87158203 C-41.3738736 30.99259308 -41.39374329 32.11360413 -41.41421509 33.26858521 C-41.4257663 34.48319427 -41.4373175 35.69780334 -41.44921875 36.94921875 C-41.4685849 38.18936737 -41.48795105 39.42951599 -41.50790405 40.70724487 C-41.55764435 44.00502404 -41.59888102 47.30276764 -41.63604736 50.60070801 C-41.67604627 53.96567959 -41.72715728 57.33048017 -41.77734375 60.6953125 C-41.87355426 67.2980768 -41.9575332 73.90089833 -42.03515625 80.50390625 C-49.62515625 80.50390625 -57.21515625 80.50390625 -65.03515625 80.50390625 C-65.03515625 53.44390625 -65.03515625 26.38390625 -65.03515625 -1.49609375 C-57.44515625 -1.49609375 -49.85515625 -1.49609375 -42.03515625 -1.49609375 C-41.70515625 0.81390625 -41.37515625 3.12390625 -41.03515625 5.50390625 C-40.32230469 5.02179688 -39.60945312 4.5396875 -38.875 4.04296875 C-37.91722656 3.41132813 -36.95945312 2.7796875 -35.97265625 2.12890625 C-35.03292969 1.50242188 -34.09320312 0.8759375 -33.125 0.23046875 C-23.13861963 -5.34978425 -9.94853205 -5.81020757 0 0 Z " fill="#66C30B" transform="translate(979.03515625,153.49609375)"/>
<path d="M0 0 C11.64478217 8.66588441 16.55648514 18.81088244 18.6875 33 C18.6875 36.63 18.6875 40.26 18.6875 44 C-1.4425 44 -21.5725 44 -42.3125 44 C-36.74211565 55.29925913 -36.74211565 55.29925913 -26.53515625 60.45703125 C-17.12119214 62.75675183 -7.7214951 60.10036792 0.54296875 55.36328125 C1.25066406 54.91339844 1.95835938 54.46351563 2.6875 54 C6.5748914 58.79267433 10.21218799 63.32134304 12.6875 69 C2.23523757 77.38895868 -7.97202707 80.40175083 -21.25 80.3125 C-22.13026855 80.30686035 -23.01053711 80.3012207 -23.91748047 80.29541016 C-35.42090199 80.0799743 -44.86303828 76.79435002 -53.54296875 68.99609375 C-63.96941275 58.06104272 -65.79093394 46.4552852 -65.59765625 32.01953125 C-65.28405461 23.54283162 -62.4391314 16.72870371 -57.3125 10 C-56.508125 8.7934375 -56.508125 8.7934375 -55.6875 7.5625 C-41.06026226 -8.21951967 -18.12258337 -10.94193713 0 0 Z M-39.875 19.9375 C-41.65057205 23.36154664 -41.65057205 23.36154664 -42.3125 29 C-29.4425 29 -16.5725 29 -3.3125 29 C-4.30805158 23.02669051 -5.1055655 20.13681892 -9.3125 16 C-19.59875749 9.20229883 -31.67558729 10.53817323 -39.875 19.9375 Z " fill="#66C30B" transform="translate(1119.3125,156)"/>
<path d="M0 0 C2.8401458 2.17434113 5.46446798 4.47863297 8 7 C8.33 4.03 8.66 1.06 9 -2 C13.62 -2 18.24 -2 23 -2 C23.0696918 9.30102799 23.12290845 20.60200436 23.15543652 31.90320396 C23.171053 37.15152993 23.19221759 42.39970822 23.22631836 47.64794922 C23.25905544 52.71838445 23.27688319 57.78867816 23.28463173 62.85921097 C23.29014956 64.78798269 23.30092423 66.71674719 23.31719017 68.64545822 C23.51242322 92.76718105 23.51242322 92.76718105 15.7890625 102.18359375 C7.15108991 110.95358776 -3.38721591 113.37570605 -15.33984375 114 C-29.14780991 114 -39.40024042 110.66465361 -50 102 C-48.54955729 97.89041233 -46.48889248 94.56741255 -44 91 C-43.55011719 91.38671875 -43.10023438 91.7734375 -42.63671875 92.171875 C-32.6549581 100.25330046 -22.71384814 102.16731128 -10 101 C-2.75181322 99.58497477 1.98365146 96.83378713 6.3125 90.75 C9.32311209 84.41441472 8.29838377 76.82967293 8 70 C7.53851562 70.45890625 7.07703125 70.9178125 6.6015625 71.390625 C-1.5493038 79.05823835 -9.01598264 81.59678074 -20.17016602 81.40039062 C-30.06892389 80.97731656 -36.87988326 77.93239238 -44 71 C-52.89249421 60.20889047 -55.57183213 47.19550391 -54.875 33.375 C-53.65039217 21.92213363 -49.82418522 10.80546692 -40.828125 3.15234375 C-38.61310467 1.59801052 -36.38818457 0.26950864 -34 -1 C-33.40960937 -1.33902344 -32.81921875 -1.67804688 -32.2109375 -2.02734375 C-22.79747638 -6.52672935 -8.72019593 -5.38417792 0 0 Z M-35.3359375 18.60546875 C-41.14517282 26.96476746 -41.03907261 37.1533166 -40 47 C-38.27602859 54.98362949 -33.74951462 61.82168587 -26.93359375 66.3828125 C-20.30843578 69.77242821 -13.49132816 70.16708965 -6.32421875 68.3046875 C-0.40941389 66.16853643 6.0721642 62.85567159 9 57 C9.13548522 54.28711867 9.21268346 51.60114887 9.23828125 48.88671875 C9.246353 48.08015335 9.25442474 47.27358795 9.26274109 46.44258118 C9.27658143 44.73363393 9.28730382 43.02465904 9.29516602 41.31567383 C9.31236506 38.7079597 9.35624794 36.10151813 9.40039062 33.49414062 C9.41051897 31.83334265 9.41903463 30.1725339 9.42578125 28.51171875 C9.44328934 27.73446945 9.46079742 26.95722015 9.47883606 26.15641785 C9.46383867 22.39403585 9.16262919 20.25064101 7.09399414 17.0625 C1.08285028 11.14176509 -5.88986656 7.98764116 -14.3125 7.625 C-23.64381871 7.8652372 -29.49524202 11.40349564 -35.3359375 18.60546875 Z " fill="#8A8A8B" transform="translate(736,154)"/>
<path d="M0 0 C4.95 0 9.9 0 15 0 C15.33 18.15 15.66 36.3 16 55 C18.97 51.37 21.94 47.74 25 44 C29.5 39 29.5 39 31.75 36.53125 C34.07862053 33.9115519 36.29562947 31.2248469 38.5 28.5 C42.10160671 24.04801393 45.86517742 19.79284585 49.72265625 15.5625 C52.98727981 11.88909853 56.07021984 8.07683463 59.15234375 4.25 C62.60499903 0.04549801 62.60499903 0.04549801 64.97119141 -0.22705078 C65.75671387 -0.21657715 66.54223633 -0.20610352 67.3515625 -0.1953125 C68.20234375 -0.18886719 69.053125 -0.18242188 69.9296875 -0.17578125 C71.26386719 -0.15064453 71.26386719 -0.15064453 72.625 -0.125 C73.97078125 -0.11146484 73.97078125 -0.11146484 75.34375 -0.09765625 C77.56276586 -0.0740497 79.78125077 -0.0411231 82 0 C78.09679603 5.48558395 73.82100343 10.45174771 69.23657227 15.36865234 C66.23191663 18.60832309 63.38646295 21.92189993 60.625 25.375 C56.02921824 31.08666402 51.05613512 36.39646818 46.04296875 41.73828125 C42.60051913 45.4104402 39.26878215 49.17255326 36 53 C40.06937906 58.76495367 44.58377452 63.86961929 49.39892578 69.00415039 C53.39840429 73.29071712 57.11806987 77.74813756 60.7890625 82.3203125 C63.1093495 85.13253315 65.53071134 87.81797263 68 90.5 C72.89558785 95.82261732 77.48138432 101.35612594 82 107 C82.74507813 107.91007812 83.49015625 108.82015625 84.2578125 109.7578125 C86 112 86 112 86 113 C70.33423837 115.06473427 70.33423837 115.06473427 65.06738281 111.80322266 C61.55061336 108.60143342 58.87770317 104.7725593 56.24511719 100.83349609 C54.49122133 98.25079846 52.50691704 95.8890169 50.5 93.5 C49.78972656 92.62472656 49.07945312 91.74945313 48.34765625 90.84765625 C45.59052316 87.50331345 42.76856475 84.21924203 39.9375 80.9375 C35.15589387 75.3933232 30.51576252 69.76423803 26 64 C24.9171875 65.0828125 24.9171875 65.0828125 23.8125 66.1875 C21 69 21 69 18.3684082 71.11206055 C15.11109695 75.08389179 15.26923355 78.02659983 15.29296875 83.01953125 C15.27784744 83.87810226 15.26272614 84.73667328 15.24714661 85.6212616 C15.20430612 88.35194231 15.19543541 91.08151686 15.1875 93.8125 C15.16435277 95.66864912 15.13898695 97.524772 15.11132812 99.38085938 C15.04851209 103.92067054 15.01614831 108.45979267 15 113 C10.05 113 5.1 113 0 113 C0 75.71 0 38.42 0 0 Z " fill="#8A8A8B" transform="translate(405,121)"/>
<path d="M0 0 C1.40506245 0.90245664 2.80480286 1.81363625 4.1875 2.75 C3.60484728 7.17323682 1.91983789 10.2655864 -0.375 14.0625 C-1.01566406 15.13113281 -1.65632812 16.19976562 -2.31640625 17.30078125 C-2.81011719 18.10902344 -3.30382812 18.91726562 -3.8125 19.75 C-4.68390625 19.26789063 -5.5553125 18.78578125 -6.453125 18.2890625 C-14.55895564 13.93434043 -23.0419806 9.43296813 -32.5234375 11.27734375 C-36.48690561 12.44035982 -36.48690561 12.44035982 -39.8125 14.75 C-39.85313832 16.41617115 -39.855221 18.08388095 -39.8125 19.75 C-33.67116178 23.31527353 -27.12612524 24.3323698 -20.21875 25.6796875 C-11.99936977 27.40530324 -3.285651 29.96329276 2.1875 36.75 C2.72375 37.389375 3.26 38.02875 3.8125 38.6875 C7.99638933 44.96333399 7.99635484 51.42773511 7.1875 58.75 C4.98830621 66.23748769 0.88161906 70.8992877 -5.8125 74.75 C-17.5253631 80.88415923 -34.47219028 80.76698087 -47 77.125 C-61.90250291 71.61499563 -61.90250291 71.61499563 -65.8125 65.75 C-62.8425 60.47 -59.8725 55.19 -56.8125 49.75 C-54.42176011 50.94536994 -52.03944211 52.15818997 -49.67578125 53.40625 C-39.93190995 58.5057437 -30.99326239 62.6272601 -19.8125 59.75 C-17.46211771 58.24345023 -16.09605452 57.29938688 -14.8125 54.8125 C-14.60047342 52.59625735 -14.60047342 52.59625735 -16.3828125 50.74609375 C-19.41037411 48.25882046 -21.88242279 47.6509908 -25.6875 46.75 C-27.03015367 46.41619108 -28.37259694 46.08153491 -29.71484375 45.74609375 C-30.39530762 45.58093262 -31.07577148 45.41577148 -31.77685547 45.24560547 C-53.94564936 39.84830976 -53.94564936 39.84830976 -60.8125 29.75 C-63.57207255 22.6539563 -63.86564629 15.77218838 -60.9140625 8.765625 C-56.41712648 0.53718887 -50.26703051 -3.40055231 -41.6328125 -6.328125 C-27.36843767 -9.77024408 -12.56163659 -7.40364614 0 0 Z " fill="#66C30B" transform="translate(891.8125,157.25)"/>
<path d="M0 0 C7.26 0 14.52 0 22 0 C22 7.59 22 15.18 22 23 C27.61 23 33.22 23 39 23 C39 29.27 39 35.54 39 42 C33.39 42 27.78 42 22 42 C22.07414595 47.30271406 22.15710435 52.60378617 22.26245117 57.90576172 C22.29561773 59.70775729 22.32367525 61.50985467 22.34643555 63.31201172 C22.38013432 65.90896823 22.43245649 68.50499866 22.48828125 71.1015625 C22.49467117 71.9017984 22.5010611 72.7020343 22.50764465 73.52651978 C22.63470864 78.40731544 23.42399153 81.71165063 26 86 C27.258125 86.020625 28.51625 86.04125 29.8125 86.0625 C30.52019531 86.07410156 31.22789063 86.08570313 31.95703125 86.09765625 C34.20305461 86.08263217 34.20305461 86.08263217 37 85 C39.24480642 90.61201606 40.83348574 96.07136283 42 102 C33.61443728 107.9080101 24.99754856 107.9136206 15 107 C8.98721626 105.48816501 5.42305902 102.03391032 2 97 C-0.55000465 91.33665633 -0.25566657 85.78094591 -0.1953125 79.6953125 C-0.1924826 78.61619598 -0.18965271 77.53707947 -0.18673706 76.42526245 C-0.1755766 72.99172701 -0.1504793 69.55845609 -0.125 66.125 C-0.11496487 63.79167044 -0.10583995 61.45833678 -0.09765625 59.125 C-0.07565075 53.41656534 -0.04114908 47.70832746 0 42 C-4.62 42 -9.24 42 -14 42 C-14 35.73 -14 29.46 -14 23 C-9.38 23 -4.76 23 0 23 C0 15.41 0 7.82 0 0 Z " fill="#66C30B" transform="translate(1157,129)"/>
<path d="M0 0 C5.90813394 4.53328517 8.71444745 10.44151063 9.92578125 17.6796875 C10.01047063 19.73403631 10.04356355 21.79083453 10.03930664 23.84692383 C10.03919334 25.67825615 10.03919334 25.67825615 10.03907776 27.54658508 C10.03391647 28.85507919 10.02875519 30.1635733 10.0234375 31.51171875 C10.02157086 32.87220711 10.02014812 34.23269615 10.01914978 35.59318542 C10.015344 39.16224037 10.00553039 42.73125419 9.9944458 46.30029297 C9.98418988 49.94693445 9.97964322 53.59358261 9.97460938 57.24023438 C9.96390628 64.38673712 9.94632529 71.53320528 9.92578125 78.6796875 C5.30578125 78.6796875 0.68578125 78.6796875 -4.07421875 78.6796875 C-4.07421875 76.3696875 -4.07421875 74.0596875 -4.07421875 71.6796875 C-4.61949219 72.07800781 -5.16476562 72.47632813 -5.7265625 72.88671875 C-16.15645827 80.21438911 -25.48655038 81.81464121 -38.07421875 80.6796875 C-45.55370849 78.89480927 -52.04551508 73.96253044 -56.4609375 67.71875 C-60.26240568 60.54264516 -60.48476469 51.69576159 -58.30859375 43.95703125 C-57.37374436 41.73490909 -56.33533115 39.73174148 -55.07421875 37.6796875 C-54.23890625 36.3184375 -54.23890625 36.3184375 -53.38671875 34.9296875 C-45.87082891 27.61692982 -37.78316959 26.39701396 -27.72167969 26.35839844 C-18.73639868 26.50004965 -11.96736428 28.86206822 -5.07421875 34.6796875 C-4.96560042 31.97026357 -4.88663298 29.2652485 -4.82421875 26.5546875 C-4.79070313 25.79414063 -4.7571875 25.03359375 -4.72265625 24.25 C-4.63010462 18.8820057 -5.52745684 15.94608226 -9.07421875 11.6796875 C-14.71073072 6.8117908 -21.04801959 6.99154917 -28.1875 7.296875 C-36.01885025 8.06820397 -41.0514197 11.14727422 -46.6640625 16.5078125 C-48.07421875 17.6796875 -48.07421875 17.6796875 -50.07421875 17.6796875 C-51.3984375 16.0703125 -51.3984375 16.0703125 -52.76171875 13.9296875 C-53.21933594 13.23359375 -53.67695313 12.5375 -54.1484375 11.8203125 C-55.07421875 9.6796875 -55.07421875 9.6796875 -54.98828125 7.6328125 C-52.28285218 1.85198115 -44.29389265 -1.51884649 -38.63671875 -3.7578125 C-26.13790593 -7.48807834 -11.14844717 -7.09637503 0 0 Z M-43.07421875 43.6796875 C-45.96702429 48.01889581 -45.70501196 53.63334183 -45.07421875 58.6796875 C-43.29392153 64.02057917 -39.93791212 66.98913372 -35.07421875 69.6796875 C-27.80724997 72.10201043 -19.33807839 71.77658503 -12.44921875 68.4296875 C-9.12793216 66.59334474 -6.38653602 64.71173266 -4.07421875 61.6796875 C-3.58863417 58.87342567 -3.35887811 56.60635169 -3.38671875 53.8046875 C-3.39179443 53.08450439 -3.39687012 52.36432129 -3.40209961 51.62231445 C-3.53932519 48.50675911 -3.81926742 46.11685404 -5.40234375 43.40234375 C-7.21378108 41.79897692 -8.90171107 40.73612261 -11.07421875 39.6796875 C-12.20859375 39.0815625 -13.34296875 38.4834375 -14.51171875 37.8671875 C-25.42072613 34.23085171 -34.68902536 35.49951106 -43.07421875 43.6796875 Z " fill="#8A8A8B" transform="translate(558.07421875,155.3203125)"/>
<path d="M0 0 C8.25 0 16.5 0 25 0 C25 37.29 25 74.58 25 113 C16.75 113 8.5 113 0 113 C0 75.71 0 38.42 0 0 Z " fill="#66C30B" transform="translate(787,121)"/>
<path d="M0 0 C4.90327595 4.11970159 7.68897887 10.081416 8.36076355 16.38536072 C8.35410172 17.56006424 8.34743988 18.73476776 8.34057617 19.94506836 C8.34123329 20.92683548 8.34123329 20.92683548 8.34190369 21.92843628 C8.33983374 24.06588853 8.31659013 26.20253061 8.29296875 28.33984375 C8.28736636 29.83199129 8.2830993 31.32414439 8.28010559 32.81629944 C8.26870733 36.72412628 8.23928423 40.63161317 8.20599365 44.53930664 C8.17518381 48.5346212 8.16157704 52.52999124 8.14648438 56.52539062 C8.11440891 64.35043259 8.06168293 72.17512515 8 80 C3.71 80 -0.58 80 -5 80 C-5.01458252 78.25984619 -5.02916504 76.51969238 -5.04418945 74.72680664 C-5.09604619 68.94716728 -5.16138633 63.16776276 -5.23571491 57.38837528 C-5.28025108 53.8877656 -5.31954269 50.38726781 -5.34643555 46.88647461 C-5.37766317 42.85241123 -5.43244401 38.81895464 -5.48828125 34.78515625 C-5.49467117 33.54105484 -5.5010611 32.29695343 -5.50764465 31.01515198 C-5.61823909 24.41918276 -5.78939059 17.93292903 -9 12 C-11.38788787 10.37667665 -11.38788787 10.37667665 -14 10 C-14.99 9.67 -15.98 9.34 -17 9 C-26.68626142 8.01686864 -34.23123287 10.06442298 -42.09887695 15.734375 C-45.80785484 19.03783973 -46.62391614 21.37899277 -47 26.30249023 C-47.04045453 28.80419767 -47.03805941 31.30684873 -47 33.80859375 C-47.00752822 35.14382789 -47.01857076 36.4790464 -47.03295898 37.81422424 C-47.06126411 41.30824549 -47.04219226 44.80042306 -47.01287842 48.29437256 C-46.99140634 51.86759162 -47.01525108 55.44048614 -47.03515625 59.01367188 C-47.06751288 66.009563 -47.04557327 73.00418658 -47 80 C-51.29 80 -55.58 80 -60 80 C-60 52.94 -60 25.88 -60 -2 C-55.71 -2 -51.42 -2 -47 -2 C-46.67 0.97 -46.34 3.94 -46 7 C-44.865625 6.0925 -43.73125 5.185 -42.5625 4.25 C-30.67944414 -4.6781219 -13.25375656 -8.28039337 0 0 Z " fill="#8A8A8B" transform="translate(653,154)"/>
<path d="M0 0 C8.91 0 17.82 0 27 0 C27 9.24 27 18.48 27 28 C18.09 28 9.18 28 0 28 C0 18.76 0 9.52 0 0 Z " fill="#69C410" transform="translate(224,121)"/>
</svg>
