<?xml version="1.0" encoding="UTF-8"?>
<svg version="1.1" xmlns="http://www.w3.org/2000/svg" width="1079" height="298">
<path d="M0 0 C0.33 43.23 0.66 86.46 1 131 C7.16919802 124.26996579 13.01232858 117.83467734 18.6875 110.78125 C21.19971749 107.75979924 23.82410618 104.87568403 26.5 102 C30.83617782 97.33736195 34.93730125 92.53423 38.9296875 87.5703125 C39.95449219 86.29800781 39.95449219 86.29800781 41 85 C41.71325439 83.96907227 42.42650879 82.93814453 43.16137695 81.87597656 C45.38267864 79.2299187 45.87360332 79.0245627 49.50512695 78.31884766 C50.81956787 78.35026855 52.13400879 78.38168945 53.48828125 78.4140625 C54.19147995 78.42255219 54.89467865 78.43104187 55.6191864 78.43978882 C57.85189045 78.47321676 60.08089979 78.54845498 62.3125 78.625 C63.8313278 78.65511427 65.35021259 78.68248755 66.86914062 78.70703125 C70.58061534 78.77296637 74.28994673 78.8764055 78 79 C73.74208509 87.88042551 66.07591476 95.07238844 59.46484375 102.25390625 C57.07292703 104.91875166 54.80745116 107.64831825 52.5625 110.4375 C48.79092572 115.11667237 44.82256632 119.55657214 40.71704102 123.94116211 C38.30756486 126.52346802 36.05300908 129.12442768 34 132 C35.41163701 135.03170938 37.08000776 137.60370389 39.08984375 140.2734375 C39.70359863 141.09094482 40.31735352 141.90845215 40.94970703 142.75073242 C41.60567871 143.61674072 42.26165039 144.48274902 42.9375 145.375 C43.61409668 146.27259033 44.29069336 147.17018066 44.98779297 148.0949707 C49.24241665 153.72366161 53.55121445 159.30518644 57.9309082 164.83691406 C63.19714336 171.49207853 68.33989278 178.24104405 73.47509766 184.99755859 C74.91956818 186.89438012 76.37107093 188.78560425 77.82421875 190.67578125 C78.6539194 191.76281208 79.48336476 192.85003784 80.3125 193.9375 C81.03050781 194.87464844 81.74851563 195.81179687 82.48828125 196.77734375 C84 199 84 199 84 201 C56.94753357 203.67211723 56.94753357 203.67211723 49.41796875 199.60546875 C45.33029251 195.90479145 42.836688 191.27363819 40.33203125 186.41650391 C38.0973622 182.36248004 35.19119169 178.86015574 32.3125 175.25 C31.23907595 173.85264516 30.16870196 172.45294141 29.1015625 171.05078125 C24.74557319 165.35857384 20.37451219 159.67797858 16 154 C9.13628268 159.1037898 2.03615177 165.16400277 0.18701172 173.79443359 C-0.20400633 177.92790055 -0.14824987 182.04132608 -0.0625 186.1875 C-0.0655824 187.63087385 -0.07271726 189.07424496 -0.08398438 190.51757812 C-0.11007567 194.01581831 -0.0534739 197.49852887 0 201 C-9.57 201 -19.14 201 -29 201 C-29.33 149.19 -29.66 97.38 -30 44 C-41.99313518 54.79382166 -51.17232555 64.9768045 -59 79 C-59.60585938 80.06476563 -60.21171875 81.12953125 -60.8359375 82.2265625 C-70.26293213 99.80440839 -74.40188148 119.10263555 -74.375 138.9375 C-74.37445618 139.61708771 -74.37391235 140.29667542 -74.37335205 140.99685669 C-74.26383683 170.87567487 -64.24916955 198.10329673 -45 221 C-44.29359375 221.87011719 -43.5871875 222.74023438 -42.859375 223.63671875 C-28.19146913 240.93941512 -6.91007572 253.3619397 14.6875 259.8125 C15.66541504 260.10483521 15.66541504 260.10483521 16.66308594 260.40307617 C27.22859122 263.36857982 37.58694542 264.33000837 48.5456543 264.26074219 C50.56394338 264.24999231 52.58134651 264.26072095 54.59960938 264.2734375 C61.50260284 264.25984224 67.99445473 263.91093094 74.74584961 262.42871094 C77 262 77 262 81 262 C81 269.92 81 277.84 81 286 C49.58803675 291.17779614 18.26368887 289.39668874 -11 276 C-11.64775391 275.70754395 -12.29550781 275.41508789 -12.96289062 275.11376953 C-23.14043266 270.46995868 -32.20090272 264.89804195 -41 258 C-41.55284668 257.56816406 -42.10569336 257.13632812 -42.67529297 256.69140625 C-73.04416328 232.67425331 -92.76841581 198.0842358 -97.74609375 159.6171875 C-98.3055519 154.75313444 -98.70491803 149.88678886 -99 145 C-99.06058594 144.00097656 -99.12117188 143.00195312 -99.18359375 141.97265625 C-100.20567675 102.95313478 -84.45258227 65.58140728 -58.1652832 37.30981445 C-45.70272285 24.18641015 -19.8395141 0 0 0 Z " fill="#8A8A8B" transform="translate(99,9)"/>
<path d="M0 0 C1.01707031 0.49371094 2.03414063 0.98742187 3.08203125 1.49609375 C15.83557825 8.08760487 26.72067505 17.08779379 37 27 C37.77859375 27.71542969 38.5571875 28.43085937 39.359375 29.16796875 C66.04360768 54.38551488 79.60276433 92.04319173 81.28515625 128.0703125 C82.41178706 168.68515259 67.41021725 205.79187774 40.30078125 235.5859375 C29.73740299 246.66941418 18.14450956 256.0028254 4.75 263.5 C4.06703857 263.88454346 3.38407715 264.26908691 2.68041992 264.6652832 C-3.74213636 268.12602878 -10.04124469 270.32355565 -17 273 C-17 206.67 -17 140.34 -17 72 C-7.43 72 2.14 72 12 72 C12.33 123.48 12.66 174.96 13 228 C39.18468329 204.43378504 54.201354 175.22795654 57 140 C58.79119846 103.9148143 45.63295033 72.09463089 21.734375 45.4765625 C-0.39966171 22.24315311 -31.53213817 9.35561247 -63.36328125 7.83984375 C-75.43897843 7.55614504 -87.0483119 9.29261599 -99 11 C-99 3.08 -99 -4.84 -99 -13 C-64.08413135 -18.66203275 -31.98952894 -15.61153556 0 0 Z " fill="#66C30B" transform="translate(217,16)"/>
<path d="M0 0 C2.05807467 2.27471411 3.6336191 4.2672382 5 7 C5.515625 6.278125 6.03125 5.55625 6.5625 4.8125 C11.12605129 -0.4531361 16.01971248 -3.83661875 23 -5 C30.46123339 -5.19016637 36.29856112 -3.97359562 42 1 C49.69507502 9.91008687 48.26825484 22.24555759 48.1953125 33.28515625 C48.19157642 34.95380991 48.18873226 36.62246579 48.18673706 38.29112244 C48.1791474 42.65585523 48.15953968 47.02045222 48.1373291 51.38513184 C48.11676944 55.84983484 48.10771382 60.31456005 48.09765625 64.77929688 C48.0762888 73.51960013 48.0411454 82.25976746 48 91 C39.75 91 31.5 91 23 91 C22.970271 88.08571167 22.970271 88.08571167 22.93994141 85.11254883 C22.87211278 78.68632777 22.795333 72.26026219 22.71247292 65.83421803 C22.66257187 61.93891255 22.61624145 58.04363338 22.578125 54.14819336 C22.54119373 50.38739613 22.49481282 46.62682232 22.44193649 42.86621666 C22.42343412 41.43297948 22.40831086 39.99969449 22.39665604 38.56638527 C22.37972306 36.55563548 22.34955528 34.54501043 22.31884766 32.53442383 C22.30552399 31.39080887 22.29220032 30.24719391 22.2784729 29.06892395 C21.97711229 25.7477649 21.44709983 22.44709983 19 20 C13.93159469 19.39677928 13.93159469 19.39677928 9.40153503 21.10908508 C7.33257613 23.90047107 7.5994935 26.13480329 7.56762695 29.58276367 C7.5574353 30.24644455 7.54724365 30.91012543 7.53674316 31.59391785 C7.50657375 33.78535357 7.49734172 35.9763525 7.48828125 38.16796875 C7.47143739 39.68827268 7.45328754 41.20856265 7.43388367 42.72883606 C7.38634526 46.72858318 7.356561 50.72827374 7.33044434 54.72821045 C7.30065801 58.81045707 7.25412113 62.89250873 7.20898438 66.97460938 C7.12290749 74.98299347 7.05713019 82.99135703 7 91 C-1.25 91 -9.5 91 -18 91 C-18.01458252 88.99131836 -18.02916504 86.98263672 -18.04418945 84.91308594 C-18.0945339 78.27526997 -18.16112857 71.63768863 -18.23571491 65.000103 C-18.28043638 60.97583774 -18.31968838 56.95167414 -18.34643555 52.92724609 C-18.37245113 49.04318766 -18.41284059 45.15952003 -18.46318626 41.27570343 C-18.47986691 39.79420076 -18.49137375 38.31263049 -18.49761391 36.83104706 C-18.50724245 34.75511236 -18.53528397 32.68018009 -18.56762695 30.60449219 C-18.58428154 28.83244415 -18.58428154 28.83244415 -18.60127258 27.02459717 C-19.03716989 23.71804311 -19.60524405 22.29635734 -22 20 C-25.84392074 19.44088426 -28.01021224 19.26803129 -31.1885376 21.61846924 C-33.57675887 24.75826525 -33.51639629 26.68070689 -33.54589844 30.60449219 C-33.55623611 31.25856552 -33.56657379 31.91263885 -33.57722473 32.58653259 C-33.60663275 34.74023195 -33.60815134 36.89299073 -33.609375 39.046875 C-33.62435817 40.54333283 -33.64108562 42.03977412 -33.65948486 43.53619385 C-33.70315602 47.46857466 -33.72315668 51.40073241 -33.73822021 55.33331299 C-33.75779236 59.3486449 -33.79976217 63.36373595 -33.83984375 67.37890625 C-33.91514344 75.25257063 -33.96336528 83.12606068 -34 91 C-42.25 91 -50.5 91 -59 91 C-59 60.31 -59 29.62 -59 -2 C-50.75 -2 -42.5 -2 -34 -2 C-33.67 0.31 -33.34 2.62 -33 5 C-32.67128906 4.52949219 -32.34257813 4.05898437 -32.00390625 3.57421875 C-24.01365728 -6.88456242 -10.44762132 -7.67580342 0 0 Z " fill="#66C30B" transform="translate(892,112)"/>
<path d="M0 0 C6.20136633 4.9147277 9.30822214 11.12388516 11.77734375 18.53125 C11.86187302 20.97205528 11.89347823 23.38407348 11.875 25.82421875 C11.87250244 27.11610107 11.87000488 28.4079834 11.86743164 29.73901367 C11.85832764 31.38232666 11.84922363 33.02563965 11.83984375 34.71875 C11.81921875 39.936875 11.79859375 45.155 11.77734375 50.53125 C-2.08265625 50.53125 -15.94265625 50.53125 -30.22265625 50.53125 C-29.92155531 59.17040007 -29.92155531 59.17040007 -28.22265625 67.53125 C-26.8072221 67.72783808 -25.39021594 67.91312546 -23.97265625 68.09375 C-22.78929687 68.25037109 -22.78929687 68.25037109 -21.58203125 68.41015625 C-18.91836574 68.66197064 -18.91836574 68.66197064 -15.22265625 67.53125 C-14.56265625 64.56125 -13.90265625 61.59125 -13.22265625 58.53125 C-4.97265625 58.53125 3.27734375 58.53125 11.77734375 58.53125 C11.77734375 68.87897443 10.24533585 75.38743865 3.38671875 83.09375 C-3.52605787 89.80518361 -12.32363609 91.74234569 -21.72265625 92.03125 C-32.34060633 91.68383241 -40.66845878 89.17445624 -48.37890625 81.6875 C-53.18139128 76.07103445 -55.31461324 69.98230992 -55.3996582 62.64599609 C-55.41249344 61.67753754 -55.42532867 60.70907898 -55.43855286 59.71127319 C-55.44593979 58.66959991 -55.45332672 57.62792664 -55.4609375 56.5546875 C-55.46900925 55.47426178 -55.47708099 54.39383606 -55.48539734 53.28067017 C-55.49922369 50.99263099 -55.50995232 48.70457132 -55.51782227 46.41650391 C-55.52932551 44.08701495 -55.54975083 41.75755201 -55.5793457 39.42822266 C-55.62221796 36.05352958 -55.63822067 32.67961982 -55.6484375 29.3046875 C-55.66594559 28.27515961 -55.68345367 27.24563171 -55.70149231 26.18490601 C-55.67742468 18.06214308 -53.93773556 10.80377481 -48.97265625 4.21875 C-35.98826479 -8.47054165 -15.12358652 -9.99379355 0 0 Z M-27.22265625 17.53125 C-29.54549199 19.92598304 -30.18910561 21.18590209 -30.515625 24.546875 C-30.48082031 25.61421875 -30.44601562 26.6815625 -30.41015625 27.78125 C-30.34828125 29.67875 -30.28640625 31.57625 -30.22265625 33.53125 C-24.61265625 33.53125 -19.00265625 33.53125 -13.22265625 33.53125 C-12.43408296 25.42880213 -12.43408296 25.42880213 -15.47265625 18.34375 C-20.0484195 15.32790604 -22.26710083 14.86287401 -27.22265625 17.53125 Z " fill="#66C30B" transform="translate(1007.22265625,113.46875)"/>
<path d="M0 0 C1.91028357 1.90562434 3.40459323 3.8063157 5 6 C5.33 3.36 5.66 0.72 6 -2 C10.95 -2 15.9 -2 21 -2 C21.04642777 11.12642604 21.08192223 24.2528324 21.10362434 37.37932396 C21.11404249 43.4750802 21.12816574 49.57078009 21.15087891 55.66650391 C21.17267747 61.55389583 21.18458343 67.44123369 21.18975449 73.32866287 C21.19343766 75.57002233 21.20062988 77.81137898 21.21146011 80.0527153 C21.22606819 83.20236254 21.22797405 86.35178895 21.22705078 89.50146484 C21.23424133 90.41928741 21.24143188 91.33710999 21.24884033 92.28274536 C21.21016572 104.54897131 18.87074237 112.12925763 10.1875 120.8125 C0.98545859 127.12762646 -9.97602974 127.26514304 -20.75 125.56640625 C-27.54121104 123.66816844 -32.67226599 119.4181531 -36.609375 113.63671875 C-39.79499992 107.88290745 -40.52631772 103.52633975 -40 97 C-35.38 97 -30.76 97 -26 97 C-25.62875 98.381875 -25.2575 99.76375 -24.875 101.1875 C-23.17874561 106.19736763 -21.54181357 108.25777294 -17 111 C-10.84137169 112.61537792 -5.64436018 112.09995372 0 109 C3.79794351 104.44246779 5.13146005 100.74258815 5.09765625 94.89453125 C5.09443359 93.91162109 5.09121094 92.92871094 5.08789062 91.91601562 C5.07951172 90.89185547 5.07113281 89.86769531 5.0625 88.8125 C5.05798828 87.77673828 5.05347656 86.74097656 5.04882812 85.67382812 C5.0370401 83.11582734 5.02058515 80.55794267 5 78 C4.25105469 78.94230469 3.50210938 79.88460937 2.73046875 80.85546875 C-1.50006057 85.91574687 -6.37166225 87.98678904 -12.875 88.875 C-20.78673363 89.34824787 -27.97724799 88.24994574 -34.11831665 82.93798828 C-41.11664503 75.73025145 -41.74590547 67.2754243 -41.6640625 57.6875 C-41.66884613 56.43799561 -41.67362976 55.18849121 -41.67855835 53.90112305 C-41.68280626 50.60350896 -41.66287178 47.30709833 -41.63476562 44.00964355 C-41.62500565 42.00116217 -41.6347365 39.99377298 -41.65185547 37.98535156 C-41.68290687 34.09389485 -41.6789609 30.20402591 -41.6640625 26.3125 C-41.67418365 25.1268042 -41.68430481 23.9411084 -41.69473267 22.71948242 C-41.57822349 14.37965848 -40.12785564 7.18245464 -34.08731079 1.06201172 C-24.71622163 -6.90493169 -9.9570812 -7.23127391 0 0 Z M-23.375 14.1875 C-26.76115731 20.04815689 -27.30539132 26.28445596 -27.265625 32.9375 C-27.26753845 33.66187256 -27.2694519 34.38624512 -27.27142334 35.13256836 C-27.27277386 36.65185904 -27.26915739 38.17116171 -27.26074219 39.69042969 C-27.25002601 41.99440839 -27.26067593 44.29760758 -27.2734375 46.6015625 C-27.2721157 48.08854336 -27.26955289 49.57552374 -27.265625 51.0625 C-27.26967346 51.73982178 -27.27372192 52.41714355 -27.27789307 53.11499023 C-27.21900327 59.22673491 -26.53194628 65.3820857 -22.75 70.375 C-18.86130095 74.08694 -15.87614066 74.79153993 -10.625 75.375 C-6.07019805 74.90381359 -2.73232835 73.65319863 1 71 C5.60303655 65.21669767 6.1657306 60.59858725 6.203125 53.421875 C6.21167511 52.15467621 6.21167511 52.15467621 6.22039795 50.86187744 C6.229843 49.07313283 6.23637997 47.28437086 6.24023438 45.49560547 C6.24991428 42.77410016 6.28093122 40.05335853 6.3125 37.33203125 C6.31903306 35.5911503 6.32428234 33.85026397 6.328125 32.109375 C6.3404718 31.30183777 6.3528186 30.49430054 6.36553955 29.66229248 C6.34278807 23.82035472 5.44700086 18.92169228 1.5703125 14.29296875 C-6.6296403 8.02111296 -15.37234109 6.81662995 -23.375 14.1875 Z " fill="#8A8A8B" transform="translate(655,112)"/>
<path d="M0 0 C5.28 0 10.56 0 16 0 C16.33 19.47 16.66 38.94 17 59 C20.63 53.06 24.26 47.12 28 41 C32.8125 33.75 32.8125 33.75 35.2421875 30.15234375 C39.37391327 23.98570435 43.30817943 17.6896314 47.2668457 11.41113281 C47.83749756 10.5084668 48.40814941 9.60580078 48.99609375 8.67578125 C49.50325928 7.87052002 50.0104248 7.06525879 50.53295898 6.2355957 C51.01708252 5.49784912 51.50120605 4.76010254 52 4 C52.46970215 3.25161865 52.9394043 2.5032373 53.42333984 1.73217773 C55 0 55 0 56.99291992 -0.45410156 C58.10050659 -0.42268066 58.10050659 -0.42268066 59.23046875 -0.390625 C60.43413086 -0.37128906 60.43413086 -0.37128906 61.66210938 -0.3515625 C62.91217773 -0.30128906 62.91217773 -0.30128906 64.1875 -0.25 C65.03248047 -0.23195313 65.87746094 -0.21390625 66.74804688 -0.1953125 C68.83251573 -0.14820586 70.91640144 -0.07646233 73 0 C71.70998454 3.47607909 70.20227778 6.45323032 68.15844727 9.54321289 C67.30229576 10.84464989 67.30229576 10.84464989 66.42884827 12.17237854 C65.8142424 13.09647018 65.19963654 14.02056183 64.56640625 14.97265625 C63.61579567 16.41275307 63.61579567 16.41275307 62.64598083 17.88194275 C61.30734952 19.90811875 59.96656445 21.93287326 58.6237793 23.95629883 C56.56954179 27.05188853 54.52149485 30.15149834 52.47460938 33.25195312 C51.1722335 35.22159126 49.86951076 37.1910001 48.56640625 39.16015625 C47.95382462 40.08627213 47.34124298 41.012388 46.71009827 41.96656799 C46.13617844 42.8310405 45.56225861 43.695513 44.97094727 44.58618164 C44.46845963 45.34387344 43.96597198 46.10156525 43.44825745 46.88221741 C42 49 42 49 40.30661011 51.12806702 C38.75430216 52.94366406 38.75430216 52.94366406 39.12329102 55.36474609 C40.160677 58.48297062 41.50130957 61.25174328 43.02734375 64.1640625 C43.33179916 64.74926666 43.63625458 65.33447083 43.94993591 65.93740845 C44.93981053 67.83646676 45.93850828 69.7307243 46.9375 71.625 C47.62569397 72.94080303 48.31335333 74.25688581 49.00048828 75.57324219 C50.69003787 78.80636046 52.38667935 82.03568626 54.08624268 85.2635498 C55.36152472 87.68702012 56.63186807 90.1130698 57.90234375 92.5390625 C61.11313524 98.66057727 64.33859606 104.77357543 67.609375 110.86328125 C68.24286865 112.04712402 68.24286865 112.04712402 68.88916016 113.25488281 C69.69248394 114.75488605 70.49926382 116.25304528 71.31005859 117.74902344 C74 122.77628762 74 122.77628762 74 125 C67.73 125 61.46 125 55 125 C51.47540092 117.9959356 47.95417571 110.99020006 44.43891144 103.98144722 C42.80660547 100.72728502 41.17281534 97.47388575 39.53564453 94.22216797 C37.956576 91.08571671 36.38139185 87.94734336 34.80891418 84.80758286 C33.91417392 83.02361155 33.0153928 81.2416688 32.11657715 79.45974731 C31.57601685 78.37877777 31.03545654 77.29780823 30.47851562 76.18408203 C29.99886353 75.22921906 29.51921143 74.27435608 29.02502441 73.29055786 C28 71 28 71 28 69 C27.113125 69.70125 26.22625 70.4025 25.3125 71.125 C24.56419922 71.71667969 24.56419922 71.71667969 23.80078125 72.3203125 C18.12952447 77.56262211 18.12952447 77.56262211 16.34057617 84.81201172 C16.2997364 86.68419217 16.2852441 88.5570776 16.29296875 90.4296875 C16.27784744 91.42001984 16.26272614 92.41035217 16.24714661 93.43069458 C16.20432195 96.57902896 16.19543643 99.72640356 16.1875 102.875 C16.16435171 105.01565042 16.13898568 107.15627809 16.11132812 109.296875 C16.04852703 114.53133466 16.01615094 119.76519693 16 125 C10.72 125 5.44 125 0 125 C0 83.75 0 42.5 0 0 Z " fill="#8A8A8B" transform="translate(373,78)"/>
<path d="M0 0 C4.16098886 3.90352249 5.94389538 7.36373557 7.6875 12.8125 C7.6875 16.1125 7.6875 19.4125 7.6875 22.8125 C-0.2325 22.8125 -8.1525 22.8125 -16.3125 22.8125 C-16.9725 20.5025 -17.6325 18.1925 -18.3125 15.8125 C-21.35550316 14.29099842 -23.966585 14.57350607 -27.3125 14.8125 C-29.58098235 17.68252722 -29.58098235 17.68252722 -29.5625 21.1875 C-28.1504157 25.28254446 -27.72581598 25.55826648 -24.0625 27.4375 C-20.00278744 29.22307558 -15.84957945 30.72196384 -11.6875 32.25 C-2.59314591 35.69515531 3.31231249 40.00579209 7.6875 48.8125 C10.4044473 56.9633419 9.71594295 67.98475155 6.0078125 75.69921875 C1.32449986 83.19529017 -4.86768533 86.76500024 -13.14453125 89.39453125 C-23.82917278 91.45445313 -35.48044984 90.2437969 -44.69140625 84.26953125 C-50.62891601 79.49109338 -53.48612349 74.11800604 -55.3125 66.8125 C-55.3125 63.5125 -55.3125 60.2125 -55.3125 56.8125 C-47.3925 56.8125 -39.4725 56.8125 -31.3125 56.8125 C-30.6525 60.1125 -29.9925 63.4125 -29.3125 66.8125 C-24.03067332 67.83661727 -24.03067332 67.83661727 -18.875 67 C-16.52673297 65.21531705 -16.32791842 63.91161838 -15.875 61 C-16.38783117 57.26365864 -17.51665518 56.33240143 -20.40698242 54.05932617 C-24.63181118 51.29491868 -29.45201641 49.7248386 -34.1484375 47.93945312 C-42.81048834 44.50378392 -49.32520571 40.42505567 -53.3125 31.8125 C-55.84290454 24.16964547 -55.64290788 13.48503301 -52.25 6.1875 C-47.95489779 -0.99111184 -42.328115 -5.01459232 -34.3125 -7.1875 C-22.06670911 -10.12648981 -9.78849608 -7.74099415 0 0 Z " fill="#66C30B" transform="translate(812.3125,115.1875)"/>
<path d="M0 0 C7.92 0 15.84 0 24 0 C24 8.25 24 16.5 24 25 C28.95 25 33.9 25 39 25 C39 32.26 39 39.52 39 47 C34.05 47 29.1 47 24 47 C24.09336477 53.37233546 24.19941996 59.74428327 24.31738281 66.11621094 C24.35572991 68.28509693 24.39057255 70.45404777 24.421875 72.62304688 C24.46740138 75.73591332 24.52541573 78.84833106 24.5859375 81.9609375 C24.59748871 82.934935 24.60903992 83.9089325 24.62094116 84.91244507 C24.64081085 85.81322784 24.66068054 86.71401062 24.68115234 87.64208984 C24.69447601 88.43706879 24.70779968 89.23204773 24.7215271 90.05111694 C24.83467008 92.23465372 24.83467008 92.23465372 27 94 C30.63 94.33 34.26 94.66 38 95 C38 102.59 38 110.18 38 118 C12.41941663 118.54043486 12.41941663 118.54043486 3.47265625 110.890625 C-1.73639751 104.20313954 -1.40099058 97.42613802 -1.29296875 89.28515625 C-1.28872391 88.07427841 -1.28447906 86.86340057 -1.28010559 85.61582947 C-1.26336989 81.76448943 -1.22572572 77.91368077 -1.1875 74.0625 C-1.17244662 71.44466904 -1.15875936 68.82682984 -1.14648438 66.20898438 C-1.11348287 59.80578616 -1.06173457 53.40298305 -1 47 C-4.96 47 -8.92 47 -13 47 C-13 39.74 -13 32.48 -13 25 C-10.16796875 24.51171875 -7.3359375 24.0234375 -4.50390625 23.53515625 C-2.0712562 23.25248903 -2.0712562 23.25248903 -1 22 C-0.84285346 20.36743242 -0.74914586 18.72864662 -0.68359375 17.08984375 C-0.64548584 16.199021 -0.60737793 15.30819824 -0.56811523 14.39038086 C-0.50346069 12.68120483 -0.50346069 12.68120483 -0.4375 10.9375 C-0.293125 7.328125 -0.14875 3.71875 0 0 Z " fill="#66C30B" transform="translate(1040,85)"/>
<path d="M0 0 C5.55147313 5.55147313 7.7950501 11.13282721 7.81192017 18.94477844 C7.80652725 19.97516487 7.80652725 19.97516487 7.80102539 21.02636719 C7.80117142 21.75846909 7.80131744 22.49057098 7.8014679 23.24485779 C7.80077276 25.65806062 7.79299908 28.0711857 7.78515625 30.484375 C7.78329065 32.16017617 7.78186742 33.83597788 7.78086853 35.51177979 C7.77705452 39.91763826 7.76723376 44.32346366 7.75616455 48.72930908 C7.74592643 53.22708692 7.74136576 57.72487011 7.73632812 62.22265625 C7.72561049 71.04428769 7.70802272 79.86588592 7.6875 88.6875 C3.0675 88.6875 -1.5525 88.6875 -6.3125 88.6875 C-6.8075 84.7275 -6.8075 84.7275 -7.3125 80.6875 C-7.828125 81.43 -8.34375 82.1725 -8.875 82.9375 C-13.23662535 87.85830809 -18.43345362 90.34054717 -24.9765625 90.92578125 C-33.58466507 91.14155163 -40.4333635 89.89200407 -47.1875 84.3125 C-47.88875 83.44625 -48.59 82.58 -49.3125 81.6875 C-50.3953125 80.3571875 -50.3953125 80.3571875 -51.5 79 C-55.65344643 71.4092186 -56.13119876 63.07505151 -54.3125 54.6875 C-51.86839453 47.38678841 -48.15349489 42.32922365 -41.3125 38.6875 C-34.13934788 35.22799121 -27.68569736 35.33128863 -19.8125 35.5 C-18.00652344 35.52030273 -18.00652344 35.52030273 -16.1640625 35.54101562 C-13.21307027 35.57614648 -10.26302588 35.62534004 -7.3125 35.6875 C-7.39969463 32.62366098 -7.50660397 29.56265949 -7.625 26.5 C-7.65883789 25.20352539 -7.65883789 25.20352539 -7.69335938 23.88085938 C-7.8974731 19.03779733 -8.19211442 15.62457909 -11.3125 11.6875 C-15.35566338 8.14973205 -18.8779227 7.38974886 -24.25 7.46875 C-28.25968385 7.8940195 -31.15206967 9.60995755 -34.0625 12.3125 C-35.97724416 15.9505139 -36.54172811 19.65577012 -37.3125 23.6875 C-42.2625 23.6875 -47.2125 23.6875 -52.3125 23.6875 C-51.855927 13.64289399 -51.0321514 6.91907205 -43.5625 -0.125 C-31.13939692 -10.26206739 -12.57004806 -9.47443921 0 0 Z M-37.25 53.75 C-39.86861051 58.52511328 -39.91637097 63.37674435 -39.3125 68.6875 C-37.01521181 73.20003037 -34.3422408 76.49724469 -29.5625 78.375 C-23.2481649 79.25199099 -18.91287452 78.91494683 -13.171875 76.24609375 C-9.59040324 73.24397772 -7.59001421 69.83694636 -6.99707031 65.24438477 C-6.92012919 62.5681827 -6.96234565 59.92527671 -7.0625 57.25 C-7.08054687 56.32767578 -7.09859375 55.40535156 -7.1171875 54.45507812 C-7.16396399 52.19811267 -7.22948129 49.94337388 -7.3125 47.6875 C-10.47884636 47.56989285 -13.64462074 47.49978976 -16.8125 47.4375 C-17.699375 47.40398437 -18.58625 47.37046875 -19.5 47.3359375 C-26.52310755 47.23265651 -32.30159592 48.48234405 -37.25 53.75 Z " fill="#8A8A8B" transform="translate(507.3125,114.3125)"/>
<path d="M0 0 C8.58 0 17.16 0 26 0 C26 41.25 26 82.5 26 125 C17.42 125 8.84 125 0 125 C0 83.75 0 42.5 0 0 Z " fill="#66C30B" transform="translate(717,78)"/>
<path d="M0 0 C5.2312875 4.80020145 7.76921109 9.46612711 8.24050903 16.68270874 C8.24624388 18.06890409 8.24113284 19.45517291 8.22705078 20.84130859 C8.22734283 21.60296326 8.22763489 22.36461792 8.22793579 23.14935303 C8.22655031 25.6491666 8.21102628 28.14867644 8.1953125 30.6484375 C8.19157958 32.3886397 8.18873393 34.12884401 8.18673706 35.86904907 C8.17912254 40.43603376 8.15949287 45.00289005 8.1373291 49.56982422 C8.1168236 54.2353339 8.1077253 58.90086444 8.09765625 63.56640625 C8.07624482 72.71100282 8.04108055 81.85547061 8 91 C3.05 91 -1.9 91 -7 91 C-7.01458252 88.88062012 -7.02916504 86.76124023 -7.04418945 84.57763672 C-7.09459188 77.56465249 -7.16119687 70.55188899 -7.23571491 63.53912163 C-7.28038721 59.28847027 -7.31965013 55.03791406 -7.34643555 50.78710938 C-7.37250005 46.68260348 -7.41292439 42.57846434 -7.46318626 38.47418594 C-7.47983377 36.91060076 -7.49136122 35.34695217 -7.49761391 33.78329086 C-7.50727838 31.58804897 -7.53536356 29.39374088 -7.56762695 27.19873047 C-7.58428154 25.32675491 -7.58428154 25.32675491 -7.60127258 23.41696167 C-8.15143837 18.70222343 -9.4972597 15.24512768 -13.1875 12.1875 C-18.43785407 9.97068384 -22.8559147 9.35710612 -28.25 11.125 C-32.59888335 12.97904261 -34.89976216 15.79952432 -37 20 C-37.12103681 22.24599216 -37.1775068 24.49554976 -37.20532227 26.74462891 C-37.22017166 27.78382225 -37.22017166 27.78382225 -37.23532104 28.8440094 C-37.26695497 31.13815878 -37.29170086 33.43232889 -37.31640625 35.7265625 C-37.33697415 37.31554712 -37.35797058 38.90452624 -37.37937927 40.49349976 C-37.43461691 44.67903195 -37.48401869 48.86461366 -37.53222656 53.05023193 C-37.58242926 57.3199912 -37.63812174 61.58967842 -37.69335938 65.859375 C-37.80096165 74.23952412 -37.9018948 82.61973431 -38 91 C-42.95 91 -47.9 91 -53 91 C-53 60.31 -53 29.62 -53 -2 C-48.05 -2 -43.1 -2 -38 -2 C-37.67 0.31 -37.34 2.62 -37 5 C-36.53851562 4.52949219 -36.07703125 4.05898437 -35.6015625 3.57421875 C-25.75239494 -5.82725937 -11.56469694 -8.40148662 0 0 Z " fill="#8A8A8B" transform="translate(588,112)"/>
</svg>
