<?xml version="1.0" encoding="UTF-8"?>
<svg version="1.1" xmlns="http://www.w3.org/2000/svg" width="750" height="207">
<path d="M0 0 C25.34338779 -0.57216148 49.58263713 7.83959547 68.25390625 25.12109375 C69.02992188 25.8171875 69.8059375 26.51328125 70.60546875 27.23046875 C88.63131669 44.20326028 98.80223292 68.50451295 99.59057617 93.07495117 C100.00235681 120.42820101 90.48445442 144.4838467 71.80908203 164.54101562 C54.76207922 181.86098457 30.92329606 192.12732261 6.66796875 192.50170898 C-21.69326652 192.448206 -46.2907006 183.31173297 -66.74609375 163.12109375 C-85.07685774 143.52857888 -93.57921825 118.65202818 -92.9921875 91.99609375 C-91.90327155 64.60525271 -79.80754236 42.87345815 -60.58984375 24.00390625 C-44.05443887 8.75609437 -22.19100802 0.97855085 0 0 Z " fill="#66C20C" transform="translate(93.74609375,6.87890625)"/>
<path d="M0 0 C0.33 21.78 0.66 43.56 1 66 C8.67351759 57.63381142 8.67351759 57.63381142 15.9375 49 C17.27989304 47.32383591 18.63240067 45.65566217 20 44 C20.44263184 43.46334717 20.88526367 42.92669434 21.34130859 42.3737793 C23.49665898 40.58865174 24.6791531 40.65125812 27.44921875 40.70703125 C28.29677734 40.71669922 29.14433594 40.72636719 30.01757812 40.73632812 C30.89865234 40.76146484 31.77972656 40.78660156 32.6875 40.8125 C33.58017578 40.82603516 34.47285156 40.83957031 35.39257812 40.85351562 C37.59566166 40.88885921 39.79752582 40.93819507 42 41 C40.22498649 44.80128926 37.8095577 47.5493622 34.9375 50.5625 C28.89425815 57.02258626 22.91581113 63.62628331 18 71 C18.35602295 71.45624756 18.7120459 71.91249512 19.07885742 72.38256836 C25.86986759 81.08935367 32.64652066 89.80726795 39.375 98.5625 C40.22227661 99.6596936 40.22227661 99.6596936 41.08666992 100.77905273 C45 105.88406125 45 105.88406125 45 107 C27.61105771 108.95578587 27.61105771 108.95578587 21.94921875 104.71484375 C19.67456278 101.58365658 17.83403409 98.40606332 16 95 C14.50844015 92.89560911 12.98898515 90.81060808 11.4375 88.75 C10.29074029 87.16733748 9.14454028 85.58426829 8 84 C4.60034894 85.40675216 2.74653902 86.72853719 1 90 C0.50484851 92.91300518 0.39878909 95.79997435 0.3125 98.75 C0.209375 101.4725 0.10625 104.195 0 107 C-5.94 107 -11.88 107 -18 107 C-18 80.6 -18 54.2 -18 27 C-30.003074 39.003074 -38.13655688 52.48200803 -38.38012695 69.84545898 C-38.357417 84.81474648 -38.357417 84.81474648 -34 99 C-33.63777344 99.87140625 -33.27554688 100.7428125 -32.90234375 101.640625 C-25.51721645 117.96300804 -12.2281073 128.4112353 4 135 C16.24903187 139.3037139 29.30585423 138.76268094 42 137 C42 141.62 42 146.24 42 151 C21.45012385 156.13746904 1.87826413 152.02395999 -16.37109375 141.6640625 C-20.89380308 138.80124798 -24.97153771 135.51537071 -29 132 C-29.61488281 131.48050781 -30.22976562 130.96101562 -30.86328125 130.42578125 C-44.33320671 118.13253893 -52.60665133 98.2940773 -53.50390625 80.3359375 C-53.96005947 56.84154017 -48.90988709 36.57168982 -32.2734375 19.11328125 C-24.33837663 11.73721951 -11.4088468 0 0 0 Z " fill="#342F2A" transform="translate(72,29)"/>
<path d="M0 0 C1.3293457 -0.01836914 1.3293457 -0.01836914 2.68554688 -0.03710938 C23.25729754 -0.08212415 41.92076492 9.26990396 56.6875 23.1875 C71.43024067 38.72231166 79.09028356 58.74702934 78.90234375 80.046875 C78.06657405 101.99491397 68.67198128 122.21992409 52.6875 137.1875 C46.20905218 142.8232229 33.90875361 153.1875 24.6875 153.1875 C24.6875 117.5475 24.6875 81.9075 24.6875 45.1875 C30.6275 45.1875 36.5675 45.1875 42.6875 45.1875 C43.0175 71.5875 43.3475 97.9875 43.6875 125.1875 C59.87792368 106.97327336 63.76460871 91.90911647 62.8828125 68.01611328 C62.50610801 62.56049052 61.13949293 58.03801561 58.6875 53.1875 C58.26339844 52.27613281 57.83929688 51.36476562 57.40234375 50.42578125 C49.68943812 35.02145441 38.07238456 25.21922307 22.61328125 18.16015625 C14.571636 15.48676551 6.80467883 14.89052365 -1.625 15 C-2.58728516 15.00064453 -3.54957031 15.00128906 -4.54101562 15.00195312 C-9.04640575 15.03001438 -12.84643381 15.29428676 -17.3125 16.1875 C-17.3125 11.2375 -17.3125 6.2875 -17.3125 1.1875 C-11.36815472 0.33830782 -5.95569809 0.00427545 0 0 Z " fill="#34302A" transform="translate(97.3125,24.8125)"/>
<path d="M0 0 C2.58387695 1.39740284 4.5133566 2.48374445 5.8515625 5.16015625 C7.86634489 4.15728251 9.8732398 3.14860064 11.859375 2.08984375 C17.58207032 -0.76094543 22.48253764 -1.73887277 28.8515625 -0.83984375 C33.07624054 0.69640281 35.54804299 2.28054445 37.8515625 6.16015625 C38.77018034 8.91600977 38.97360572 10.51976315 38.96508789 13.35620117 C38.96497459 14.61716866 38.96497459 14.61716866 38.96485901 15.90361023 C38.95969772 16.8068251 38.95453644 17.71003998 38.94921875 18.640625 C38.9478038 19.56861404 38.94638885 20.49660309 38.94493103 21.45271301 C38.93933187 24.41772683 38.92677954 27.38266524 38.9140625 30.34765625 C38.90904739 32.35742078 38.9044845 34.3671865 38.90039062 36.37695312 C38.88936271 41.30471657 38.87209867 46.23242362 38.8515625 51.16015625 C34.2315625 51.16015625 29.6115625 51.16015625 24.8515625 51.16015625 C24.82650635 50.15114258 24.8014502 49.14212891 24.77563477 48.10253906 C24.68133841 44.35273929 24.58117229 40.60311517 24.47924805 36.85351562 C24.43598319 35.23181268 24.39430222 33.61006667 24.35424805 31.98828125 C24.29634036 29.65481598 24.23270552 27.32156582 24.16796875 24.98828125 C24.15125626 24.2652179 24.13454376 23.54215454 24.11732483 22.79718018 C24.01953601 19.46125069 23.866996 16.35461609 22.8515625 13.16015625 C21.45752494 13.05081997 20.06092474 12.97396072 18.6640625 12.91015625 C17.88675781 12.86375 17.10945312 12.81734375 16.30859375 12.76953125 C12.78126225 13.33031527 11.33227055 14.60243276 8.8515625 17.16015625 C8.33441283 19.96398438 8.12928041 22.18423572 8.14453125 24.98828125 C8.12940994 25.73728699 8.11428864 26.48629272 8.09870911 27.25799561 C8.05583691 29.64235548 8.0469955 32.02544939 8.0390625 34.41015625 C8.01591751 36.02998156 7.99055216 37.64977677 7.96289062 39.26953125 C7.90004413 43.23318477 7.86770507 47.19604849 7.8515625 51.16015625 C3.2315625 51.16015625 -1.3884375 51.16015625 -6.1484375 51.16015625 C-6.17349365 50.15114258 -6.1985498 49.14212891 -6.22436523 48.10253906 C-6.31866159 44.35273929 -6.41882771 40.60311517 -6.52075195 36.85351562 C-6.56401681 35.23181268 -6.60569778 33.61006667 -6.64575195 31.98828125 C-6.70365964 29.65481598 -6.76729448 27.32156582 -6.83203125 24.98828125 C-6.84874374 24.2652179 -6.86545624 23.54215454 -6.88267517 22.79718018 C-6.98046399 19.46125069 -7.133004 16.35461609 -8.1484375 13.16015625 C-9.54247506 13.05081997 -10.93907526 12.97396072 -12.3359375 12.91015625 C-13.11324219 12.86375 -13.89054688 12.81734375 -14.69140625 12.76953125 C-18.21873775 13.33031527 -19.66772945 14.60243276 -22.1484375 17.16015625 C-22.66558717 19.96398438 -22.87071959 22.18423572 -22.85546875 24.98828125 C-22.87059006 25.73728699 -22.88571136 26.48629272 -22.90129089 27.25799561 C-22.94416309 29.64235548 -22.9530045 32.02544939 -22.9609375 34.41015625 C-22.98408249 36.02998156 -23.00944784 37.64977677 -23.03710938 39.26953125 C-23.09995587 43.23318477 -23.13229493 47.19604849 -23.1484375 51.16015625 C-27.7684375 51.16015625 -32.3884375 51.16015625 -37.1484375 51.16015625 C-37.1484375 34.33015625 -37.1484375 17.50015625 -37.1484375 0.16015625 C-32.5284375 0.16015625 -27.9084375 0.16015625 -23.1484375 0.16015625 C-22.8184375 1.48015625 -22.4884375 2.80015625 -22.1484375 4.16015625 C-21.54257812 3.79921875 -20.93671875 3.43828125 -20.3125 3.06640625 C-13.65805891 -0.61913035 -7.42547354 -2.90268511 0 0 Z " fill="#66C30B" transform="translate(570.1484375,83.83984375)"/>
<path d="M0 0 C0.495 0.495 0.495 0.495 1 1 C1.33 -0.32 1.66 -1.64 2 -3 C6.62 -3 11.24 -3 16 -3 C16.09922689 4.5255961 16.17163956 12.05080733 16.21972656 19.5769043 C16.23978303 22.13458901 16.26703505 24.69222821 16.30175781 27.24975586 C16.35053672 30.93614975 16.37302945 34.62193484 16.390625 38.30859375 C16.41127014 39.44332626 16.43191528 40.57805878 16.45318604 41.74717712 C16.45510547 48.61135654 15.67863159 54.09608487 12 60 C5.52556977 66.47443023 -1.89208829 68.13189451 -10.75 68.25 C-19.60069184 68.17593563 -25.93221005 66.25553612 -33 61 C-31.72278474 56.00724943 -29.82669043 53.42388092 -26 50 C-24.6078125 50.9590625 -24.6078125 50.9590625 -23.1875 51.9375 C-17.64341183 55.52485117 -12.45573663 55.69069935 -6 55 C-2.84499033 53.71236549 -0.56044307 52.12088614 1 49 C1.039992 47.00039988 1.04346799 44.99952758 1 43 C0.13375 43.66 -0.7325 44.32 -1.625 45 C-7.19285827 48.19952592 -13.79682582 47.79053081 -20 47 C-26.93432114 44.04235048 -31.40764542 39.83690015 -34.26953125 32.8515625 C-36.47625768 24.23706897 -36.17731857 14.12571459 -32.33203125 6.0546875 C-29.44802067 1.60603776 -25.9061417 -1.0681085 -21.1875 -3.375 C-13.15938084 -4.94914101 -6.94862029 -4.51751032 0 0 Z M-19 14 C-21.47037796 17.86667854 -21.16515022 21.44846725 -20.54296875 25.84765625 C-19.56503234 29.72422431 -17.50438547 32.08030216 -14.140625 34.13671875 C-11.68388778 35.12748321 -10.18304688 35.15658389 -7.5625 34.875 C-6.82128906 34.81054688 -6.08007812 34.74609375 -5.31640625 34.6796875 C-1.99755738 33.70586001 -0.34213206 32.56905143 2 30 C2.75498034 27.1488522 2.74481518 24.43553375 2.6875 21.5 C2.71521484 20.74074219 2.74292969 19.98148438 2.77148438 19.19921875 C2.76171358 16.96756951 2.64263347 15.13845705 2 13 C-2.14598827 9.25277722 -5.39879867 8.29106891 -10.81640625 8.546875 C-14.68379217 9.34940947 -16.34647157 11.08759075 -19 14 Z " fill="#8A8A8B" transform="translate(428,87)"/>
<path d="M0 0 C5.28 0 10.56 0 16 0 C16.33 9.24 16.66 18.48 17 28 C18.4025 26.164375 19.805 24.32875 21.25 22.4375 C22.18312309 21.25483683 23.11665843 20.0724987 24.05078125 18.890625 C26.08752714 16.27511332 27.91073582 13.6068909 29.66796875 10.796875 C36.26505825 0.74787494 36.26505825 0.74787494 41.38916016 -0.65332031 C47.00335672 -1.28403411 52.42578648 -0.78715358 58 0 C56.48133302 3.39743025 54.49720998 6.01618284 52.125 8.875 C51.33222656 9.8340625 50.53945313 10.793125 49.72265625 11.78125 C47.77814098 14.09701065 45.80083419 16.38145192 43.80859375 18.65625 C43.27024902 19.27387207 42.7319043 19.89149414 42.17724609 20.52783203 C41.11992429 21.73734167 40.05664571 22.94167594 38.98681641 24.14013672 C36.24195094 27.27906255 34.26823044 29.94470026 33 34 C33.73863281 34.92039063 34.47726563 35.84078125 35.23828125 36.7890625 C40.97597412 43.94593903 46.68898367 51.12060921 52.3449707 58.34228516 C54.30591257 60.84591759 56.27570048 63.33065429 58.3125 65.7734375 C60 68 60 68 60 70 C53.64884307 71.09689491 47.24166691 72.03953746 41 70 C35.58789333 65.92908595 32.04355215 60.0262221 28.50146484 54.34765625 C26.1997466 50.748742 23.61178867 47.37756395 21 44 C18.81198224 45.29795856 18.81198224 45.29795856 17 48 C16.33789199 51.73770653 16.30289618 55.46070984 16.25 59.25 C16.20552734 60.796875 16.20552734 60.796875 16.16015625 62.375 C16.08956605 64.91624703 16.04250622 67.45812812 16 70 C10.72 70 5.44 70 0 70 C0 46.9 0 23.8 0 0 Z " fill="#8A8A8B" transform="translate(216,65)"/>
<path d="M0 0 C3.68730053 1.88699105 6.36418515 4.13801194 9.0625 7.3125 C9.619375 7.951875 10.17625 8.59125 10.75 9.25 C15.04374736 15.99731727 14.0625 20.74083403 14.0625 29.3125 C2.1825 29.3125 -9.6975 29.3125 -21.9375 29.3125 C-19.60683938 35.14354055 -19.60683938 35.14354055 -16.3125 37.1875 C-9.9770821 39.29930597 -4.98813803 39.01343048 1.125 36.3125 C2.424375 35.6525 3.72375 34.9925 5.0625 34.3125 C7.0425 36.9525 9.0225 39.5925 11.0625 42.3125 C8.80032772 46.83684457 8.80032772 46.83684457 5.25 48.5 C4.58355469 48.82355469 3.91710937 49.14710938 3.23046875 49.48046875 C-4.81067888 52.56653081 -14.8304446 52.54605076 -22.83984375 49.40625 C-29.52956493 45.91812723 -33.86066667 41.28484517 -36.31640625 34.125 C-38.06869655 26.19010052 -38.1213327 17.48027376 -33.9375 10.3125 C-26.59942118 -0.79748849 -12.45155547 -5.18989203 0 0 Z M-20.9375 14.3125 C-21.2675 15.9625 -21.5975 17.6125 -21.9375 19.3125 C-14.3475 19.3125 -6.7575 19.3125 1.0625 19.3125 C-1.19510106 13.60581804 -1.19510106 13.60581804 -5.9375 10.3125 C-11.93061324 9.21781695 -16.36044205 10.0787214 -20.9375 14.3125 Z " fill="#66C30B" transform="translate(654.9375,84.6875)"/>
<path d="M0 0 C3.24616103 3.0178596 5.59124354 5.77373063 7 10 C7.085409 12.94964113 7.11582927 15.87503019 7.09765625 18.82421875 C7.0962413 19.68561966 7.09482635 20.54702057 7.09336853 21.43452454 C7.0877714 24.18555169 7.07521946 26.93649744 7.0625 29.6875 C7.05748463 31.5527332 7.05292179 33.41796767 7.04882812 35.28320312 C7.03780292 39.85550011 7.02054027 44.42773625 7 49 C2.38 49 -2.24 49 -7 49 C-7.33 48.01 -7.66 47.02 -8 46 C-8.7425 46.474375 -9.485 46.94875 -10.25 47.4375 C-15.54547704 50.44629377 -21.01346889 50.64719255 -27 50 C-32.33030078 48.32632194 -35.9513652 45.75587029 -39 41 C-40.72237197 35.8328841 -40.65561622 30.89400242 -38.875 25.75 C-36.36402414 22.06723541 -33.48136629 18.81347885 -29.10546875 17.37890625 C-21.78873426 16.06216554 -15.71885854 16.94597339 -9 20 C-8.67 20.33 -8.34 20.66 -8 21 C-7.69140342 17.60543766 -7.61279537 15.62289441 -9.4375 12.6875 C-13.17339641 10.22727553 -16.55243343 9.66405901 -21 10 C-23.23003136 10.80735758 -25.14406548 11.77400991 -27.17578125 12.9921875 C-29.10287534 14.05683477 -30.85260051 14.55440275 -33 15 C-37.0237875 8.78141932 -37.0237875 8.78141932 -36.921875 5.43359375 C-35.68593258 2.17091525 -34.32506746 1.66489133 -31.1875 0.25 C-30.31480469 -0.15734375 -29.44210937 -0.5646875 -28.54296875 -0.984375 C-20.1543428 -4.33467108 -7.8123014 -5.20215894 0 0 Z M-26 31 C-26.83333333 33.5 -26.83333333 33.5 -26 36 C-23.90144909 38.42644949 -22.2701505 39.76952914 -19.0625 40.3515625 C-14.55772395 40.5392615 -11.67397864 39.78331715 -8 37 C-6.68879347 35.89203039 -6.68879347 35.89203039 -6.625 33.125 C-6.67658295 29.91863028 -6.67658295 29.91863028 -8.9375 28.125 C-15.21990391 25.81717815 -21.40410381 25.51457552 -26 31 Z " fill="#8A8A8B" transform="translate(317,86)"/>
<path d="M0 0 C3.40920514 2.411389 5.69634878 5.08019755 7.5625 8.8125 C7.65152493 10.17095193 7.68010132 11.53365974 7.67602539 12.89501953 C7.67594986 13.73574005 7.67587433 14.57646057 7.67579651 15.44265747 C7.67063522 16.35103363 7.66547394 17.25940979 7.66015625 18.1953125 C7.6587413 19.12471649 7.65732635 20.05412048 7.65586853 21.01168823 C7.65026053 23.98699124 7.63770668 26.96221964 7.625 29.9375 C7.61998603 31.95182183 7.61542295 33.96614484 7.61132812 35.98046875 C7.6002885 40.92450802 7.58301849 45.86849135 7.5625 50.8125 C2.9425 50.8125 -1.6775 50.8125 -6.4375 50.8125 C-6.45151855 49.29897949 -6.45151855 49.29897949 -6.46582031 47.75488281 C-6.5057477 44.00476224 -6.57151281 40.25545971 -6.64501953 36.50585938 C-6.67321347 34.88422163 -6.69443594 33.26244687 -6.70849609 31.640625 C-6.72994872 29.30657895 -6.77660575 26.97417739 -6.828125 24.640625 C-6.82935364 23.91756165 -6.83058228 23.19449829 -6.83184814 22.44952393 C-6.92994183 19.06474068 -7.21423547 17.11807739 -9.23339844 14.35449219 C-11.87962106 12.50319156 -14.04524613 12.33302233 -17.2421875 12.28125 C-20.68430574 13.11421812 -22.73097215 14.5305967 -25.4375 16.8125 C-26.05975545 19.69067714 -26.27838798 21.76230596 -26.2421875 24.640625 C-26.25589386 25.38963074 -26.26960022 26.13863647 -26.28372192 26.91033936 C-26.32101633 29.29500424 -26.3173083 31.67758496 -26.3125 34.0625 C-26.33062753 35.68232421 -26.35143042 37.30212084 -26.375 38.921875 C-26.42684434 42.88576578 -26.44193141 46.84828878 -26.4375 50.8125 C-31.0575 50.8125 -35.6775 50.8125 -40.4375 50.8125 C-40.4375 33.9825 -40.4375 17.1525 -40.4375 -0.1875 C-35.8175 -0.1875 -31.1975 -0.1875 -26.4375 -0.1875 C-26.1075 1.1325 -25.7775 2.4525 -25.4375 3.8125 C-23.82875 2.8534375 -23.82875 2.8534375 -22.1875 1.875 C-15.49840915 -2.11272724 -7.32143035 -2.52922139 0 0 Z " fill="#8A8A8B" transform="translate(376.4375,84.1875)"/>
<path d="M0 0 C2.3125 2.140625 2.3125 2.140625 4 4 C2.35 6.97 0.7 9.94 -1 13 C-1.66 12.731875 -2.32 12.46375 -3 12.1875 C-3.99 11.795625 -4.98 11.40375 -6 11 C-6.60457031 10.72414063 -7.20914062 10.44828125 -7.83203125 10.1640625 C-13.03470731 7.92701441 -16.44724762 7.90928078 -22 9 C-22.33 10.32 -22.66 11.64 -23 13 C-22.46109131 13.12528076 -21.92218262 13.25056152 -21.36694336 13.37963867 C-18.88632069 13.96608372 -16.41220253 14.57657491 -13.9375 15.1875 C-13.08994141 15.38408203 -12.24238281 15.58066406 -11.36914062 15.78320312 C-5.02140809 17.37626341 0.45080986 19.43676737 4.4140625 24.9765625 C6.02237302 30.53059482 5.8162736 36.20419808 3.4375 41.4375 C-1.13392086 46.2433527 -6.25593817 48.73619077 -12.8828125 49.203125 C-22.85186709 49.34725591 -30.96353103 48.13309474 -39 42 C-38.46884894 37.48521602 -36.63379708 34.65333143 -34 31 C-31.28276858 32.03894142 -28.78446461 33.12246329 -26.25 34.5625 C-20.71866847 37.00905048 -14.87408761 37.70538027 -9 36 C-9.495 33.525 -9.495 33.525 -10 31 C-10.81621826 30.80422363 -10.81621826 30.80422363 -11.64892578 30.60449219 C-14.14411394 29.99860129 -16.63440101 29.3744757 -19.125 28.75 C-19.9809375 28.54503906 -20.836875 28.34007812 -21.71875 28.12890625 C-28.26858244 26.46625648 -33.27450121 24.83872381 -36.9375 18.8125 C-38.43283189 13.44689734 -38.65245212 8.95162137 -35.8671875 3.9765625 C-27.26711432 -7.16123719 -11.49434107 -6.12527386 0 0 Z " fill="#66C30B" transform="translate(519,87)"/>
<path d="M0 0 C4.62 0 9.24 0 14 0 C14 4.62 14 9.24 14 14 C17.3 14 20.6 14 24 14 C24 17.96 24 21.92 24 26 C20.7 26 17.4 26 14 26 C14.13813025 30.14612814 14.28678859 34.29181162 14.4375 38.4375 C14.47681641 39.62150391 14.51613281 40.80550781 14.55664062 42.02539062 C14.59853516 43.15009766 14.64042969 44.27480469 14.68359375 45.43359375 C14.72025146 46.47572021 14.75690918 47.51784668 14.79467773 48.59155273 C14.73515341 50.9499826 14.73515341 50.9499826 16 52 C18.33297433 52.04092937 20.66705225 52.04241723 23 52 C24.485 57.445 24.485 57.445 26 63 C20.49301167 66.57210054 15.35057897 66.68986944 9 66 C5.37991826 64.77175798 3.6675246 63.87427913 1.36206055 60.85473633 C-0.37341438 57.21736255 -0.3410447 54.53407299 -0.29296875 50.51171875 C-0.28872391 49.80852005 -0.28447906 49.10532135 -0.28010559 48.3808136 C-0.2634006 46.14930869 -0.22576614 43.91872887 -0.1875 41.6875 C-0.17244248 40.1686329 -0.15875594 38.64975154 -0.14648438 37.13085938 C-0.11352473 33.42027566 -0.06180016 29.71022822 0 26 C-2.64 26 -5.28 26 -8 26 C-8 22.04 -8 18.08 -8 14 C-5.36 14 -2.72 14 0 14 C0 9.38 0 4.76 0 0 Z " fill="#66C30B" transform="translate(681,70)"/>
<path d="M0 0 C4.95 0 9.9 0 15 0 C15 23.1 15 46.2 15 70 C10.05 70 5.1 70 0 70 C0 46.9 0 23.8 0 0 Z " fill="#66C30B" transform="translate(456,65)"/>
</svg>
