<?xml version="1.0" encoding="UTF-8"?>
<svg version="1.1" xmlns="http://www.w3.org/2000/svg" width="1236" height="361">
<path d="M0 0 C0.33 43.23 0.66 86.46 1 131 C6.78389401 124.63771659 12.28736539 118.46822246 17.65234375 111.81640625 C20.17873487 108.78557764 22.81312967 105.88772307 25.5 103 C29.77523944 98.40383903 33.81478395 93.67282954 37.734375 88.765625 C38.85585938 87.39664063 38.85585938 87.39664063 40 86 C40.61597046 84.96552734 40.61597046 84.96552734 41.24438477 83.91015625 C42.98975515 81.33160612 44.39920823 79.73941287 47 78 C52.51386381 77.00957609 57.8629441 77.24210456 63.4375 77.5 C64.94717127 77.54017582 66.45694529 77.57666945 67.96679688 77.609375 C71.64668362 77.69705951 75.32268218 77.83482722 79 78 C77.09063224 82.08842336 74.38838645 85.25027473 71.4375 88.625 C70.89955811 89.24673096 70.36161621 89.86846191 69.80737305 90.5090332 C65.97723281 94.92186005 62.06615426 99.2575358 58.13671875 103.58203125 C55.11300826 107.00374385 52.27475631 110.56682254 49.4140625 114.125 C47.6591301 116.21501658 45.89554743 118.2087888 44.0234375 120.1875 C43.27006104 120.98534912 43.27006104 120.98534912 42.50146484 121.79931641 C41.52352605 122.82559559 40.5372152 123.84398212 39.54150391 124.85302734 C37.57586519 126.91506954 36.07429902 128.84144437 34.86328125 131.42578125 C35.0792564 135.49228485 37.6187548 137.87164685 40.1875 140.8125 C41.31089647 142.15432549 42.43192231 143.49813864 43.55078125 144.84375 C44.12779785 145.53210938 44.70481445 146.22046875 45.29931641 146.9296875 C47.93733059 150.14105131 50.40619183 153.47038893 52.875 156.8125 C57.17618546 162.60105766 61.5581893 168.31867086 66 174 C70.67355023 179.98474071 75.30751868 185.99631387 79.875 192.0625 C80.39320313 192.74763672 80.91140625 193.43277344 81.4453125 194.13867188 C85 198.87988281 85 198.87988281 85 200 C80.57112659 200.19893013 76.14466695 200.34344922 71.71264648 200.43945312 C70.20795367 200.47949646 68.70356851 200.53395384 67.19995117 200.60351562 C54.75609676 201.16445835 54.75609676 201.16445835 50.56225586 198.38354492 C48.76512439 196.35017082 47.37692429 194.33390686 46 192 C45.24074219 191.02675781 44.48148438 190.05351562 43.69921875 189.05078125 C43.03535156 188.14714844 42.37148437 187.24351562 41.6875 186.3125 C38.51544272 182.03291086 35.31563117 177.78044055 32.0625 173.5625 C31.65362549 173.03076172 31.24475098 172.49902344 30.82348633 171.95117188 C28.61075679 169.07639642 26.38482441 166.21272905 24.14453125 163.359375 C23.44928345 162.46883423 23.44928345 162.46883423 22.73999023 161.56030273 C21.84636298 160.41605707 20.94887674 159.2748122 20.04711914 158.13696289 C17 154.22502945 17 154.22502945 17 152 C16.34 152 15.68 152 15 152 C14.773125 152.54527344 14.54625 153.09054688 14.3125 153.65234375 C12.59986449 156.71571857 10.39646955 159.00231814 8 161.5625 C3.05887123 166.85554055 0.77207012 169.50323039 0.5859375 176.85546875 C0.56657135 177.51710526 0.5472052 178.17874176 0.5272522 178.86042786 C0.46757313 180.96932164 0.42111913 183.07827037 0.375 185.1875 C0.33680934 186.61916415 0.29775697 188.05080559 0.2578125 189.48242188 C0.16026148 192.98816165 0.08060538 196.49366577 0 200 C-9.57 200 -19.14 200 -29 200 C-29 148.19 -29 96.38 -29 43 C-54.3572665 65.18760819 -71.03735547 93.96387778 -74 128 C-76.1832736 163.10781929 -65.60032844 195.04960835 -43 222 C-42.56171875 222.56074219 -42.1234375 223.12148438 -41.671875 223.69921875 C-24.1525907 245.94870982 5.90937931 258.47434724 33 263 C33.7734375 263.13277344 34.546875 263.26554687 35.34375 263.40234375 C50.99400648 265.59939899 66.50719045 263.22651155 82 261 C82 268.92 82 276.84 82 285 C40.91109935 292.19805559 0.62377441 285.97224553 -34.24707031 262.23486328 C-38.72601312 259.07964145 -42.89125396 255.61768562 -47 252 C-47.92425781 251.20851563 -48.84851562 250.41703125 -49.80078125 249.6015625 C-56.28328335 243.91704475 -61.76998393 237.84445726 -67 231 C-67.66644531 230.14921875 -68.33289063 229.2984375 -69.01953125 228.421875 C-82.98018249 210.02795976 -91.24686253 189.4595566 -96 167 C-96.2475 165.86820313 -96.495 164.73640625 -96.75 163.5703125 C-103.35343328 126.79285771 -94.25152818 86.79978444 -73.50537109 55.95361328 C-67.94849232 48.0499761 -61.74774578 40.90540339 -55 34 C-54.33742187 33.28714844 -53.67484375 32.57429688 -52.9921875 31.83984375 C-41.42808537 19.67092456 -17.67167735 0 0 0 Z " fill="#8A8A8B" transform="translate(103,41)"/>
<path d="M0 0 C1.28003906 0.91458984 1.28003906 0.91458984 2.5859375 1.84765625 C31.08069937 23.38439488 51.42135055 55.86554519 58 91 C58.2638147 92.39206665 58.2638147 92.39206665 58.53295898 93.81225586 C60.02464488 102.45129935 60.36099878 110.93437796 60.3125 119.6875 C60.30926727 120.74173157 60.30926727 120.74173157 60.30596924 121.81726074 C60.25210205 132.78810668 59.70854176 143.33156108 57 154 C56.81195801 154.77102051 56.62391602 155.54204102 56.43017578 156.33642578 C51.88634681 174.464749 44.26660864 192.0160989 33 207 C32.06607422 208.24716797 32.06607422 208.24716797 31.11328125 209.51953125 C13.26507598 232.50859889 -8.68805625 249.53093475 -36 260 C-36.66 260 -37.32 260 -38 260 C-38 193.67 -38 127.34 -38 59 C-28.43 59 -18.86 59 -9 59 C-8.67 110.81 -8.34 162.62 -8 216 C2.0829247 206.94502021 2.0829247 206.94502021 10.6875 196.875 C11.49392944 195.79895508 11.49392944 195.79895508 12.31665039 194.70117188 C32.14298155 167.56012836 40.04508642 133.26995312 35.23071289 100.02294922 C30.73931237 74.48022809 18.86565886 51.68201586 1 33 C0.33871094 32.26394531 -0.32257813 31.52789062 -1.00390625 30.76953125 C-14.88424485 15.88833332 -34.67389938 5.73456629 -54 0 C-54.65145996 -0.19609863 -55.30291992 -0.39219727 -55.97412109 -0.59423828 C-76.16071176 -6.42104979 -98.43958154 -5.35680301 -119 -2 C-119 -9.92 -119 -17.84 -119 -26 C-76.69463259 -33.21114217 -34.99701159 -25.53453397 0 0 Z " fill="#66C30B" transform="translate(242,60)"/>
<path d="M0 0 C3.93294115 2.73449127 6.87565349 6.52998046 9.8203125 10.265625 C10.47773437 9.59466797 10.47773437 9.59466797 11.1484375 8.91015625 C18.86809837 1.55137384 26.85266628 -1.98909553 37.5703125 -2.234375 C44.90665696 -1.94961393 50.46083532 -1.06547156 56.1328125 3.890625 C62.96993972 11.74501009 62.22436203 21.75913637 62.11328125 31.58203125 C62.10767533 33.04889997 62.10340995 34.51577437 62.10041809 35.98265076 C62.08904751 39.81482876 62.05964915 43.64665733 62.02630615 47.47869873 C61.99543573 51.40046463 61.98187675 55.32228784 61.96679688 59.24414062 C61.93477043 66.91814534 61.882068 74.59179139 61.8203125 82.265625 C54.2303125 82.265625 46.6403125 82.265625 38.8203125 82.265625 C38.80572998 80.56510986 38.79114746 78.86459473 38.77612305 77.11254883 C38.72440908 71.48454318 38.65910642 65.85680422 38.58459759 60.22905445 C38.53993179 56.81801036 38.50066783 53.40708464 38.47387695 49.99584961 C38.44281444 46.07119351 38.38802632 42.14703899 38.33203125 38.22265625 C38.32564133 37.00165726 38.3192514 35.78065826 38.31266785 34.5226593 C38.29287369 33.3818541 38.27307953 32.24104889 38.25268555 31.06567383 C38.24158249 30.06417801 38.23047943 29.06268219 38.21903992 28.03083801 C37.75320727 24.80024379 36.72865595 22.892916 34.8203125 20.265625 C31.12560678 18.41827214 26.86126644 18.92317128 22.8203125 19.265625 C18.07076273 20.96829378 14.84693351 23.22899011 11.8203125 27.265625 C11.05161249 31.43036692 11.09916519 35.55946444 11.11328125 39.78515625 C11.09059929 41.60571785 11.09059929 41.60571785 11.06745911 43.46305847 C11.02451354 47.3349353 11.01573678 51.20603351 11.0078125 55.078125 C10.98467377 57.70509893 10.95930975 60.33205426 10.93164062 62.95898438 C10.86871944 69.3946003 10.83643781 75.82972853 10.8203125 82.265625 C3.5603125 82.265625 -3.6996875 82.265625 -11.1796875 82.265625 C-11.2094165 79.91232056 -11.2094165 79.91232056 -11.23974609 77.51147461 C-11.31596883 71.67619102 -11.40466091 65.84115136 -11.49707031 60.00610352 C-11.53529115 57.48336614 -11.57015592 54.96057555 -11.6015625 52.43774414 C-11.64736235 48.80595923 -11.7053332 45.17453848 -11.765625 41.54296875 C-11.77717621 40.41978745 -11.78872742 39.29660614 -11.80062866 38.13938904 C-11.70487447 28.53335718 -11.70487447 28.53335718 -16.0078125 20.359375 C-19.98777415 18.35507777 -23.84843667 18.55781939 -28.1796875 19.265625 C-31.16086999 20.57333698 -33.66624806 22.20495294 -36.1796875 24.265625 C-36.70065506 24.67806961 -37.22162262 25.09051422 -37.75837708 25.51545715 C-39.72142121 27.932703 -39.57668228 29.56296912 -39.61206055 32.6550293 C-39.63185471 33.75594406 -39.65164886 34.85685883 -39.67204285 35.99113464 C-39.68162773 37.77249565 -39.68162773 37.77249565 -39.69140625 39.58984375 C-39.70935745 40.80638138 -39.72730865 42.02291901 -39.74580383 43.27632141 C-39.80006147 47.16855383 -39.833853 51.06066254 -39.8671875 54.953125 C-39.90034682 57.58920998 -39.93483516 60.22527861 -39.97070312 62.86132812 C-40.05579724 69.32933804 -40.1225352 75.79731026 -40.1796875 82.265625 C-47.4396875 82.265625 -54.6996875 82.265625 -62.1796875 82.265625 C-62.1796875 55.205625 -62.1796875 28.145625 -62.1796875 0.265625 C-54.9196875 0.265625 -47.6596875 0.265625 -40.1796875 0.265625 C-39.8496875 2.905625 -39.5196875 5.545625 -39.1796875 8.265625 C-38.72980469 7.87890625 -38.27992188 7.4921875 -37.81640625 7.09375 C-27.51257396 -1.24843085 -12.77662884 -5.64162832 0 0 Z " fill="#66C30B" transform="translate(944.1796875,151.734375)"/>
<path d="M0 0 C9.25392026 7.36107293 15.8442282 16.23311328 17.75 28.1875 C18.245 36.1075 18.245 36.1075 18.75 44.1875 C-1.38 44.1875 -21.51 44.1875 -42.25 44.1875 C-36.67994309 55.48511794 -36.67994309 55.48511794 -26.4765625 60.64453125 C-15.75624673 63.25878369 -6.67237876 58.99511723 2.75 54.1875 C4.04537826 55.9347544 5.33616273 57.68541517 6.625 59.4375 C7.70394531 60.89929688 7.70394531 60.89929688 8.8046875 62.390625 C10.35982225 64.62652154 11.63204223 66.71622493 12.75 69.1875 C3.53198127 77.7697933 -8.90711669 80.58131316 -21.125 80.5 C-22.00978027 80.49436035 -22.89456055 80.4887207 -23.80615234 80.48291016 C-36.01303071 80.25548077 -45.84578952 76.311349 -55 68.0625 C-63.40475321 59.061665 -66.80356338 46.90983574 -66.5 34.82421875 C-65.32966527 22.48084464 -60.41273724 11.6207766 -51.25 3.1875 C-48.06124458 0.85013699 -44.7836286 -1.0456857 -41.25 -2.8125 C-40.58742188 -3.15410156 -39.92484375 -3.49570313 -39.2421875 -3.84765625 C-26.67814184 -9.14426374 -11.44864207 -6.38481962 0 0 Z M-38.125 18.125 C-41.64393256 23.17078651 -41.64393256 23.17078651 -42.25 29.1875 C-29.38 29.1875 -16.51 29.1875 -3.25 29.1875 C-4.398091 22.29895401 -6.22974736 19.73584889 -11.25 15.1875 C-19.62317052 10.22562117 -31.41507356 10.37523116 -38.125 18.125 Z " fill="#66C30B" transform="translate(1087.25,155.8125)"/>
<path d="M0 0 C2.8401458 2.17434113 5.46446798 4.47863297 8 7 C8.33 4.03 8.66 1.06 9 -2 C13.62 -2 18.24 -2 23 -2 C23.0696918 9.30102799 23.12290845 20.60200436 23.15543652 31.90320396 C23.171053 37.15152993 23.19221759 42.39970822 23.22631836 47.64794922 C23.25905544 52.71838445 23.27688319 57.78867816 23.28463173 62.85921097 C23.29014956 64.78798269 23.30092423 66.71674719 23.31719017 68.64545822 C23.51242322 92.76718105 23.51242322 92.76718105 15.7890625 102.18359375 C7.15108991 110.95358776 -3.38721591 113.37570605 -15.33984375 114 C-29.14780991 114 -39.40024042 110.66465361 -50 102 C-48.54955729 97.89041233 -46.48889248 94.56741255 -44 91 C-43.55011719 91.38671875 -43.10023438 91.7734375 -42.63671875 92.171875 C-32.6549581 100.25330046 -22.71384814 102.16731128 -10 101 C-2.75181322 99.58497477 1.98365146 96.83378713 6.3125 90.75 C9.32311209 84.41441472 8.29838377 76.82967293 8 70 C7.53851562 70.45890625 7.07703125 70.9178125 6.6015625 71.390625 C-1.5493038 79.05823835 -9.01598264 81.59678074 -20.17016602 81.40039062 C-30.06892389 80.97731656 -36.87988326 77.93239238 -44 71 C-52.89249421 60.20889047 -55.57183213 47.19550391 -54.875 33.375 C-53.65039217 21.92213363 -49.82418522 10.80546692 -40.828125 3.15234375 C-38.61310467 1.59801052 -36.38818457 0.26950864 -34 -1 C-33.40960937 -1.33902344 -32.81921875 -1.67804688 -32.2109375 -2.02734375 C-22.79747638 -6.52672935 -8.72019593 -5.38417792 0 0 Z M-35.3359375 18.60546875 C-41.14517282 26.96476746 -41.03907261 37.1533166 -40 47 C-38.27602859 54.98362949 -33.74951462 61.82168587 -26.93359375 66.3828125 C-20.30843578 69.77242821 -13.49132816 70.16708965 -6.32421875 68.3046875 C-0.40941389 66.16853643 6.0721642 62.85567159 9 57 C9.13548522 54.28711867 9.21268346 51.60114887 9.23828125 48.88671875 C9.246353 48.08015335 9.25442474 47.27358795 9.26274109 46.44258118 C9.27658143 44.73363393 9.28730382 43.02465904 9.29516602 41.31567383 C9.31236506 38.7079597 9.35624794 36.10151813 9.40039062 33.49414062 C9.41051897 31.83334265 9.41903463 30.1725339 9.42578125 28.51171875 C9.44328934 27.73446945 9.46079742 26.95722015 9.47883606 26.15641785 C9.46383867 22.39403585 9.16262919 20.25064101 7.09399414 17.0625 C1.08285028 11.14176509 -5.88986656 7.98764116 -14.3125 7.625 C-23.64381871 7.8652372 -29.49524202 11.40349564 -35.3359375 18.60546875 Z " fill="#8A8A8B" transform="translate(707,154)"/>
<path d="M0 0 C-0.58265272 4.42323682 -2.26766211 7.5155864 -4.5625 11.3125 C-5.20316406 12.38113281 -5.84382812 13.44976562 -6.50390625 14.55078125 C-6.99761719 15.35902344 -7.49132812 16.16726562 -8 17 C-10.08527429 15.97631989 -12.13349316 14.92454734 -14.15625 13.78125 C-21.11270798 9.9783863 -28.69598175 6.98934896 -36.7265625 8.51953125 C-40.67983205 9.69398754 -40.67983205 9.69398754 -44 12 C-44.04063832 13.66617115 -44.042721 15.33388095 -44 17 C-38.78772566 19.98458613 -33.67683675 21.09078846 -27.875 22.3125 C-17.43275269 24.67388926 -6.74594592 27.21762921 -0.046875 36.30078125 C3.70969885 42.39820522 3.70870155 49.02343149 3 56 C1.18987426 63.07042403 -4.08070795 68.04797636 -10 72 C-21.93079501 78.05900574 -38.48940108 77.99419732 -51.1875 74.3125 C-65.33648526 69.12392543 -65.33648526 69.12392543 -70 64 C-68.51481201 59.95698825 -66.57122002 56.38853744 -64.375 52.6875 C-63.42753906 51.08455078 -63.42753906 51.08455078 -62.4609375 49.44921875 C-61.73777344 48.23685547 -61.73777344 48.23685547 -61 47 C-60.32195313 47.38671875 -59.64390625 47.7734375 -58.9453125 48.171875 C-43.68592878 56.90980404 -43.68592878 56.90980404 -26.5625 57.41796875 C-23.00422498 56.1884433 -23.00422498 56.1884433 -20 54 C-19.95919217 52.00041636 -19.95745644 49.99954746 -20 48 C-27.2283996 44.43323933 -34.31578907 42.60764296 -42.18359375 41.02148438 C-51.56250063 38.97630424 -59.64450755 35.28784405 -65 27 C-68.01192272 20.71650606 -68.16012533 13.85809122 -66.16015625 7.20703125 C-62.79699662 -0.27798059 -57.67084125 -4.44593864 -50.3125 -7.8125 C-33.51636147 -13.83375721 -14.30026548 -10.21447534 0 0 Z " fill="#66C30B" transform="translate(864,160)"/>
<path d="M0 0 C4.95 0 9.9 0 15 0 C15.33 18.15 15.66 36.3 16 55 C18.97 51.37 21.94 47.74 25 44 C29.5 39 29.5 39 31.75 36.53125 C34.07862053 33.9115519 36.29562947 31.2248469 38.5 28.5 C42.10160671 24.04801393 45.86517742 19.79284585 49.72265625 15.5625 C52.98727981 11.88909853 56.07021984 8.07683463 59.15234375 4.25 C62.60499903 0.04549801 62.60499903 0.04549801 64.97119141 -0.22705078 C65.75671387 -0.21657715 66.54223633 -0.20610352 67.3515625 -0.1953125 C68.20234375 -0.18886719 69.053125 -0.18242188 69.9296875 -0.17578125 C71.26386719 -0.15064453 71.26386719 -0.15064453 72.625 -0.125 C73.97078125 -0.11146484 73.97078125 -0.11146484 75.34375 -0.09765625 C77.56276586 -0.0740497 79.78125077 -0.0411231 82 0 C78.09679603 5.48558395 73.82100343 10.45174771 69.23657227 15.36865234 C66.23191663 18.60832309 63.38646295 21.92189993 60.625 25.375 C56.02921824 31.08666402 51.05613512 36.39646818 46.04296875 41.73828125 C42.60051913 45.4104402 39.26878215 49.17255326 36 53 C40.06937906 58.76495367 44.58377452 63.86961929 49.39892578 69.00415039 C53.39840429 73.29071712 57.11806987 77.74813756 60.7890625 82.3203125 C63.1093495 85.13253315 65.53071134 87.81797263 68 90.5 C72.89558785 95.82261732 77.48138432 101.35612594 82 107 C82.74507813 107.91007812 83.49015625 108.82015625 84.2578125 109.7578125 C86 112 86 112 86 113 C70.33423837 115.06473427 70.33423837 115.06473427 65.06738281 111.80322266 C61.55061336 108.60143342 58.87770317 104.7725593 56.24511719 100.83349609 C54.49122133 98.25079846 52.50691704 95.8890169 50.5 93.5 C49.78972656 92.62472656 49.07945312 91.74945313 48.34765625 90.84765625 C45.59052316 87.50331345 42.76856475 84.21924203 39.9375 80.9375 C35.15589387 75.3933232 30.51576252 69.76423803 26 64 C24.9171875 65.0828125 24.9171875 65.0828125 23.8125 66.1875 C21 69 21 69 18.3684082 71.11206055 C15.11109695 75.08389179 15.26923355 78.02659983 15.29296875 83.01953125 C15.27784744 83.87810226 15.26272614 84.73667328 15.24714661 85.6212616 C15.20430612 88.35194231 15.19543541 91.08151686 15.1875 93.8125 C15.16435277 95.66864912 15.13898695 97.524772 15.11132812 99.38085938 C15.04851209 103.92067054 15.01614831 108.45979267 15 113 C10.05 113 5.1 113 0 113 C0 75.71 0 38.42 0 0 Z " fill="#8A8A8B" transform="translate(376,121)"/>
<path d="M0 0 C7.26 0 14.52 0 22 0 C22 7.59 22 15.18 22 23 C27.61 23 33.22 23 39 23 C39 29.27 39 35.54 39 42 C33.39 42 27.78 42 22 42 C22.0740717 47.46342649 22.15696384 52.9252371 22.26245117 58.38793945 C22.29565549 60.2452755 22.32370141 62.10271137 22.34643555 63.96020508 C22.38006442 66.63405798 22.43238374 69.30699993 22.48828125 71.98046875 C22.49467117 72.80773972 22.5010611 73.63501068 22.50764465 74.48735046 C22.62479634 79.10633359 22.98217071 82.2607477 26 86 C27.9365805 86.63733445 27.9365805 86.63733445 30 86.375 C30.680625 86.34148437 31.36125 86.30796875 32.0625 86.2734375 C34.21249329 86.02947546 34.21249329 86.02947546 37 85 C39.475 92.92 39.475 92.92 42 101 C36.32870855 106.67129145 31.57512809 107.41826075 23.75 107.4375 C16.55215338 107.4049936 10.72613014 106.75401101 5 102 C0.01336124 95.06701371 -0.69423482 88.40244326 -0.48828125 80.0859375 C-0.48120651 78.99028473 -0.47413177 77.89463196 -0.46684265 76.76577759 C-0.43908295 73.30146015 -0.37637699 69.83882043 -0.3125 66.375 C-0.28739342 64.01174226 -0.26458442 61.64845893 -0.24414062 59.28515625 C-0.18931634 53.52280117 -0.10317065 47.76168401 0 42 C-4.62 42 -9.24 42 -14 42 C-14 35.73 -14 29.46 -14 23 C-9.38 23 -4.76 23 0 23 C0 15.41 0 7.82 0 0 Z " fill="#66C30B" transform="translate(1125,129)"/>
<path d="M0 0 C5.90813394 4.53328517 8.71444745 10.44151063 9.92578125 17.6796875 C10.01047063 19.73403631 10.04356355 21.79083453 10.03930664 23.84692383 C10.03919334 25.67825615 10.03919334 25.67825615 10.03907776 27.54658508 C10.03391647 28.85507919 10.02875519 30.1635733 10.0234375 31.51171875 C10.02157086 32.87220711 10.02014812 34.23269615 10.01914978 35.59318542 C10.015344 39.16224037 10.00553039 42.73125419 9.9944458 46.30029297 C9.98418988 49.94693445 9.97964322 53.59358261 9.97460938 57.24023438 C9.96390628 64.38673712 9.94632529 71.53320528 9.92578125 78.6796875 C5.30578125 78.6796875 0.68578125 78.6796875 -4.07421875 78.6796875 C-4.07421875 76.3696875 -4.07421875 74.0596875 -4.07421875 71.6796875 C-4.61949219 72.07800781 -5.16476562 72.47632813 -5.7265625 72.88671875 C-16.15645827 80.21438911 -25.48655038 81.81464121 -38.07421875 80.6796875 C-45.55370849 78.89480927 -52.04551508 73.96253044 -56.4609375 67.71875 C-60.26240568 60.54264516 -60.48476469 51.69576159 -58.30859375 43.95703125 C-57.37374436 41.73490909 -56.33533115 39.73174148 -55.07421875 37.6796875 C-54.23890625 36.3184375 -54.23890625 36.3184375 -53.38671875 34.9296875 C-45.87082891 27.61692982 -37.78316959 26.39701396 -27.72167969 26.35839844 C-18.73639868 26.50004965 -11.96736428 28.86206822 -5.07421875 34.6796875 C-4.96560042 31.97026357 -4.88663298 29.2652485 -4.82421875 26.5546875 C-4.79070313 25.79414063 -4.7571875 25.03359375 -4.72265625 24.25 C-4.63010462 18.8820057 -5.52745684 15.94608226 -9.07421875 11.6796875 C-14.71073072 6.8117908 -21.04801959 6.99154917 -28.1875 7.296875 C-36.01885025 8.06820397 -41.0514197 11.14727422 -46.6640625 16.5078125 C-48.07421875 17.6796875 -48.07421875 17.6796875 -50.07421875 17.6796875 C-51.3984375 16.0703125 -51.3984375 16.0703125 -52.76171875 13.9296875 C-53.21933594 13.23359375 -53.67695313 12.5375 -54.1484375 11.8203125 C-55.07421875 9.6796875 -55.07421875 9.6796875 -54.98828125 7.6328125 C-52.28285218 1.85198115 -44.29389265 -1.51884649 -38.63671875 -3.7578125 C-26.13790593 -7.48807834 -11.14844717 -7.09637503 0 0 Z M-43.07421875 43.6796875 C-45.96702429 48.01889581 -45.70501196 53.63334183 -45.07421875 58.6796875 C-43.29392153 64.02057917 -39.93791212 66.98913372 -35.07421875 69.6796875 C-27.80724997 72.10201043 -19.33807839 71.77658503 -12.44921875 68.4296875 C-9.12793216 66.59334474 -6.38653602 64.71173266 -4.07421875 61.6796875 C-3.58863417 58.87342567 -3.35887811 56.60635169 -3.38671875 53.8046875 C-3.39179443 53.08450439 -3.39687012 52.36432129 -3.40209961 51.62231445 C-3.53932519 48.50675911 -3.81926742 46.11685404 -5.40234375 43.40234375 C-7.21378108 41.79897692 -8.90171107 40.73612261 -11.07421875 39.6796875 C-12.20859375 39.0815625 -13.34296875 38.4834375 -14.51171875 37.8671875 C-25.42072613 34.23085171 -34.68902536 35.49951106 -43.07421875 43.6796875 Z " fill="#8A8A8B" transform="translate(529.07421875,155.3203125)"/>
<path d="M0 0 C8.25 0 16.5 0 25 0 C25 37.29 25 74.58 25 113 C16.75 113 8.5 113 0 113 C0 75.71 0 38.42 0 0 Z " fill="#66C30B" transform="translate(755,121)"/>
<path d="M0 0 C4.90327595 4.11970159 7.68897887 10.081416 8.36076355 16.38536072 C8.35410172 17.56006424 8.34743988 18.73476776 8.34057617 19.94506836 C8.34123329 20.92683548 8.34123329 20.92683548 8.34190369 21.92843628 C8.33983374 24.06588853 8.31659013 26.20253061 8.29296875 28.33984375 C8.28736636 29.83199129 8.2830993 31.32414439 8.28010559 32.81629944 C8.26870733 36.72412628 8.23928423 40.63161317 8.20599365 44.53930664 C8.17518381 48.5346212 8.16157704 52.52999124 8.14648438 56.52539062 C8.11440891 64.35043259 8.06168293 72.17512515 8 80 C3.71 80 -0.58 80 -5 80 C-5.01458252 78.25984619 -5.02916504 76.51969238 -5.04418945 74.72680664 C-5.09604619 68.94716728 -5.16138633 63.16776276 -5.23571491 57.38837528 C-5.28025108 53.8877656 -5.31954269 50.38726781 -5.34643555 46.88647461 C-5.37766317 42.85241123 -5.43244401 38.81895464 -5.48828125 34.78515625 C-5.49467117 33.54105484 -5.5010611 32.29695343 -5.50764465 31.01515198 C-5.61823909 24.41918276 -5.78939059 17.93292903 -9 12 C-11.38788787 10.37667665 -11.38788787 10.37667665 -14 10 C-14.99 9.67 -15.98 9.34 -17 9 C-26.68626142 8.01686864 -34.23123287 10.06442298 -42.09887695 15.734375 C-45.80785484 19.03783973 -46.62391614 21.37899277 -47 26.30249023 C-47.04045453 28.80419767 -47.03805941 31.30684873 -47 33.80859375 C-47.00752822 35.14382789 -47.01857076 36.4790464 -47.03295898 37.81422424 C-47.06126411 41.30824549 -47.04219226 44.80042306 -47.01287842 48.29437256 C-46.99140634 51.86759162 -47.01525108 55.44048614 -47.03515625 59.01367188 C-47.06751288 66.009563 -47.04557327 73.00418658 -47 80 C-51.29 80 -55.58 80 -60 80 C-60 52.94 -60 25.88 -60 -2 C-55.71 -2 -51.42 -2 -47 -2 C-46.67 0.97 -46.34 3.94 -46 7 C-44.865625 6.0925 -43.73125 5.185 -42.5625 4.25 C-30.67944414 -4.6781219 -13.25375656 -8.28039337 0 0 Z " fill="#8A8A8B" transform="translate(624,154)"/>
</svg>
