<?xml version="1.0" encoding="UTF-8"?>
<svg version="1.1" viewBox="0 0 2048 460" width="800" height="180" xmlns="http://www.w3.org/2000/svg">
<path transform="translate(203,3)" d="m0 0h41l22 3 24 6 22 8 16 8 16 9 14 10 11 9 13 12 13 14 12 16 12 20 11 23 8 24 5 23 2 18v36l-3 23-6 24-7 19-12 25-11 17-9 12-12 14-11 11-11 9-13 10-20 12-23 11-24 8-24 5-16 2h-40l-26-4-19-5-22-8-16-8-16-9-14-10-11-9-13-12-7-7-9-11-11-15-9-15-8-16-8-20-6-20-4-22-1-9v-40l3-22 5-21 8-23 9-19 13-21 10-13 11-13 14-14 14-11 14-10 21-12 21-9 22-7 26-5z" fill="#75C212"/>
<path transform="translate(273,54)" d="m0 0 13 1 10 4 11 8 6 7 6 13 4 13v16l-6 12-10 10-10 5-8 2-9 1h-12l-11-4-6-4-8 1-22 9-11 7-15 13-7 7-10 14-3 7-1 6v15l5 14 4 7 12 7 13 3 47 6 18 4 11 6 9 7 7 10 4 10 1 4v13l-5 13-10 19-7 8-9 4-8-1-3-3v-6l7-15v-14l-3-10-9-9-12-7-16-5-24-5-51-7-22-6-16-8-11-8-8-10-5-10-2-7v-9l7-27 6-16 8-13 12-14 15-14 11-9 14-11 18-12 16-10 23-15 16-8 23-7z" fill="#030203"/>
<path transform="translate(870,187)" d="m0 0h19l11 4 8 7 4 7v2l8-7 8-6 10-5 8-2h19l11 4 8 7 5 10 2 16v84l-1 1h-31l-1-80-4-9-4-3-11-2-13 4-9 7-1 2-1 81h-32l-1-81-3-7-5-4-10-2-9 2-11 7-3 4-1 81h-31v-120h31l1 14 10-8 12-6z" fill="#898A8A"/>
<path transform="translate(1930,187)" d="m0 0h20l12 4 10 7 5 4 1-13h31l1 1v85l-1 38-3 12-6 11-9 9-10 6-16 5-16 2h-12l-18-3-15-6-11-8-1-2 12-19 2-2 12 8 13 4h24l11-4 6-5 4-8 1-4 1-16 1-2h-2v2l-11 9-11 5-9 2h-14l-12-3-10-5-10-9-7-11-5-15-1-6v-24l3-14 7-14 9-10 10-7zm12 28-9 4-8 7-5 11-1 5v11l2 9 6 10 8 6 9 3h12l11-4 10-7 1-2v-41l-8-7-9-4-4-1z" fill="#75C213"/>
<path transform="translate(567,141)" d="m0 0h27l15 3 16 6 11 7 7 6-2 5-13 17-3 4-4-1-10-7-12-5-12-3h-19l-10 5-3 5v9l4 5 12 5 35 9 15 6 11 7 8 8 6 12 2 11-1 15-4 12-7 10-7 7-16 8-11 3-18 2-18-1-16-3-13-5-13-7-10-8-2-4 13-18 5-8 4 2 10 8 16 8 12 3h21l11-4 6-7 1-9-4-6-10-5-26-7-18-5-12-5-11-8-7-8-4-8-2-10v-12l3-11 4-8 9-10 9-7 15-6z" fill="#8A8B8B"/>
<path transform="translate(1247,143)" d="m0 0h35l1 1-1 72 5-5 11-14 13-16 13-17 14-17 4-4h43l-6 7-9 11-12 14-9 11-13 15-11 13-5 6 2 4 11 14 13 16 11 14 13 16 8 10 11 14v1h-44l-9-12-16-21-14-19-10-13-6 5-6 8-1 15v36l-1 1h-34l-1-1z" fill="#75C112"/>
<path transform="translate(1624,144)" d="m0 0h32v165h-31l-1-1v-13l-11 9-10 5-7 2-13 1-14-3-12-6-10-9-8-13-4-13-2-13v-12l3-17 5-12 6-9 10-10 12-6 8-2h19l10 3 10 6 7 7h1zm-28 70-10 2-10 6-6 8-4 12v14l3 10 6 9 5 4 9 4 10 1 12-3 9-6 4-4v-44l-8-7-8-4z" fill="#75C212"/>
<path transform="translate(1060,187)" d="m0 0h26l13 3 10 5 10 9 5 9 2 9v87h-31l-1-1 1-11-10 7-10 5-8 2-15 1-11-2-12-6-8-8-6-12-1-4v-17l4-11 4-6 9-8 10-4 4-1h22l11 3 10 5 6 4-1-18-3-5-5-4-8-3-5-1h-11l-15 4-10 6-4 2-6-9-6-10 2-4 11-7 10-5zm0 67-8 4-6 7-1 3v8l3 6 6 5 7 3h16l12-5 5-5v-16l-5-5-8-4-4-1z" fill="#8A8B8B"/>
<path transform="translate(724,186)" d="m0 0 18 2 13 5 11 8 8 9 5 8 5 14 2 14v13h-90l5 12 4 5 10 6 5 2 13 1 12-2 11-4 6-4 3 1 12 18-1 3-14 8-15 5-16 2-17-1-16-5-12-7-7-6-9-13-5-12-2-12v-14l3-14 8-16 11-12 11-7 13-5zm-8 27-10 5-6 7-4 9 1 4h58l1-3-5-12-8-7-8-3z" fill="#8A8B8B"/>
<path transform="translate(1442,187)" d="m0 0h23l13 3 12 6 10 8 8 10 6 12 3 12v22l-5 16-6 11-9 10-10 7-16 6-16 2-13-1-15-4-11-6-11-10-8-12-5-14-1-5v-22l3-11 8-16 10-11 11-7 10-4zm11 27-10 2-10 6-6 8-3 9-1 5v10l3 12 7 10 7 5 11 3 11-1 12-6 7-9 3-9 1-6v-9l-3-11-6-10-9-6-12-3z" fill="#75C212"/>
<path transform="translate(1815,187)" d="m0 0h21l10 3 10 7 6 10 3 12v90h-32l-1-77-3-9-5-5-11-3-11 1-9 4-9 6-1 6-1 77h-31v-120h31l1 14 11-8 10-5z" fill="#75C212"/>
<path transform="translate(1224,186)" d="m0 0 3 1v30h-12l-11 3-10 5-4 3-1 15-1 66h-31v-120h31l1 2-1 13 15-11 12-5z" fill="#898A8A"/>
<path transform="translate(204,325)" d="m0 0h16l10 4 8 6 6 9 4 11v10l-5 13-9 10-12 6-4 1h-10l-13-4-9-7-6-9-3-9v-13l5-12 9-10 10-5z" fill="#030203"/>
<path transform="translate(1687,189)" d="m0 0h31v120h-31z" fill="#75C112"/>
<path transform="translate(1699,138)" d="m0 0h8l7 3 5 5 3 6v10l-5 8-8 5-8 1-8-3-7-8-2-9 3-9 5-6z" fill="#75C212"/>
</svg>
